<?xml version="1.0" standalone="no"?>
<!DOCTYPE svg PUBLIC "-//W3C//DTD SVG 1.1//EN" "http://www.w3.org/Graphics/SVG/1.1/DTD/svg11.dtd">
<svg xmlns="http://www.w3.org/2000/svg">
<defs >
<font id="NotoSerifDisplay" horiz-adv-x="592" ><font-face
    font-family="Noto Serif Display Light"
    units-per-em="1000"
    panose-1="2 2 5 2 8 5 5 9 2 4"
    ascent="1069"
    descent="-293"
    alphabetic="0" />
<glyph unicode=" " horiz-adv-x="250" />
<glyph unicode="!" horiz-adv-x="297" d="M122 195L202 714H279L136 195H122ZM94 -8Q79 -8 70 0T61 29Q61 57 74 80T115 104Q130 104 139 96T148 67Q148 48 142 31T125 3T94 -8Z" />
<glyph unicode="&quot;" horiz-adv-x="231" d="M101 479L125 714H191L115 479H101ZM206 479L230 714H296L220 479H206Z" />
<glyph unicode="#" horiz-adv-x="559" d="M69 0L138 234H22V244H140L216 498H99V508H218L278 714H288L228 508H439L499 714H509L449 508H580V498H447L371 244H503V234H369L300 0H290L359 234H148L79 0H69ZM150 244H361L437 498H226L150 244Z" />
<glyph unicode="$" horiz-adv-x="537" d="M225 37Q161 38 121 60T61 116T42 187Q42 208 50 220T72 239T96 246Q96 188 109 144T151 75T227 47L288 338L255 354Q221 371 199 392T164 442T152 508Q152 564 177 602T250 661T362 682L378 760H388L372 682Q423 681
455 667T503 630T518 580Q518 558 504 545T462 531Q462 567 454 598T425 650T370 673L311 394L341 378Q382 357 409 334T450 283T464 216Q464 160 437 120T358 59T234 37L210 -79H200L225 37ZM236 47Q293 48 329 70T382 127T400 204Q400 232 391 253T360 294T298
334L236 47ZM359 673Q320 672 288 655T236 603T216 516Q216 490 224 469T251 430T301 398L359 673Z" />
<glyph unicode="%" horiz-adv-x="871" d="M202 0L697 714H708L213 0H202ZM196 282Q142 282 110 321T77 446Q77 486 88 533T124 623T185 694T274 722Q338 722 366 679T395 562Q395 531 388 494T366 419T327 351T271 301T196 282ZM198 292Q227 292 249 311T288 361T316
429T332 504T338 571Q338 644 322 678T273 712Q244 712 221 693T182 642T154 573T138 500T132 438Q132 364 148 328T198 292ZM633 -7Q579 -7 547 32T514 157Q514 197 525 244T561 334T622 405T711 433Q775 433 803 390T832 273Q832 242 825 205T803 130T764 62T708
12T633 -7ZM635 3Q664 3 686 22T725 72T753 140T769 215T775 282Q775 355 758 389T708 423Q680 423 657 404T618 353T591 284T575 211T569 149Q569 75 585 39T635 3Z" />
<glyph unicode="&amp;" horiz-adv-x="713" d="M229 -10Q160 -10 114 16T45 84T22 176Q22 244 52 286T131 352T239 391Q209 437 194 478T179 555Q179 608 201 646T269 704T382 724Q437 724 472 707T524 660T541 595Q541 545 517 511T441 452T306 403L470 174Q495
220 515 272T544 370L553 415H714L712 405H674Q647 405 631 399T604 376T578 330Q562 285 540 235T491 144L547 65Q569 35 583 23T623 10H652L651 0H517L451 93Q412 48 358 19T229 -10ZM235 0Q298 0 347 34T431 121L245 382Q190 360 156 334T105 270T89 177Q89
127 106 87T155 24T235 0ZM300 412Q367 437 406 463T463 522T480 596Q480 647 454 680T379 714Q308 714 276 675T243 561Q243 542 248 519T266 470T300 412Z" />
<glyph unicode="&apos;" horiz-adv-x="126" d="M101 479L125 714H191L115 479H101Z" />
<glyph unicode="(" horiz-adv-x="315" d="M188 -122Q136 -94 104 -48T56 60T41 192Q41 277 60 363T121 528T225 666T376 753L374 743Q315 711 270 659T194 541T143 409T114 278T105 167Q105 106 112 55T137 -38T190 -112L188 -122Z" />
<glyph unicode=")" horiz-adv-x="315" d="M-48 -116Q15 -83 61 -30T137 88T186 219T213 348T221 460Q221 519 216 571T192 666T136 738L138 748Q190 721 222 675T270 567T285 435Q285 351 266 264T205 98T100 -39T-50 -126L-48 -116Z" />
<glyph unicode="*" horiz-adv-x="448" d="M282 375L216 389L279 557L110 488L95 553L275 572L118 663L159 717L284 582L295 763L361 749L297 580L468 650L481 584L300 566L458 476L420 424L292 555L282 375Z" />
<glyph unicode="+" horiz-adv-x="559" d="M288 143V347H84V367H288V572H308V367H513V347H308V143H288Z" />
<glyph unicode="," horiz-adv-x="215" d="M-27 -134Q14 -124 36 -107T67 -68T76 -28Q76 -11 67 -2T47 15T27 32T18 56Q18 77 31 90T65 103Q90 103 107 84T124 32Q124 -7 110 -41T63 -102T-27 -143V-134Z" />
<glyph unicode="-" horiz-adv-x="310" d="M24 266L28 286H288L284 266H24Z" />
<glyph unicode="." horiz-adv-x="207" d="M52 -8Q37 -8 28 0T19 29Q19 57 32 80T73 104Q88 104 97 96T106 67Q106 48 100 31T83 3T52 -8Z" />
<glyph unicode="/" horiz-adv-x="242" d="M-78 -121L331 760H342L-68 -121H-78Z" />
<glyph unicode="0" horiz-adv-x="537" d="M229 -11Q148 -11 100 49T51 226Q51 287 61 355T95 489T152 607T235 692T346 724Q396 724 436 701T499 627T523 493Q523 432 513 363T481 228T425 108T342 21T229 -11ZM230 -1Q271 -1 303 21T361 83T405 174T435 281T452
394T457 501Q457 584 444 630T406 695T344 714Q295 714 258 682T194 596T150 476T125 341T116 211Q116 136 129 89T168 21T230 -1Z" />
<glyph unicode="1" horiz-adv-x="537" d="M49 0L51 10H114Q141 10 158 14T185 31T201 71L291 489Q301 531 308 563T322 622T334 670H333Q293 632 264 607T213 569T169 556Q150 556 142 567T134 594Q170 593 194 597T241 614T294 652L371 718H406L270 74Q269 66
268 57T266 41Q266 22 281 16T325 10H396L393 0H49Z" />
<glyph unicode="2" horiz-adv-x="537" d="M10 0L25 58L266 277Q317 323 350 361T403 433T431 503T439 578Q439 650 409 682T326 714Q291 714 265 702T220 666T191 611T178 541Q156 541 142 552T128 587Q128 619 151 650T219 703T329 724Q415 724 461 685T507 574Q507
522 484 475T413 377T290 265L36 55H346Q376 55 392 62T418 85T435 122L444 152H454L420 0H10Z" />
<glyph unicode="3" horiz-adv-x="537" d="M200 -10Q133 -10 92 6T33 47T14 101Q14 125 29 139T66 154Q66 104 80 70T124 18T202 0Q241 0 273 12T330 52T368 120T382 219Q382 295 346 332T241 370H197L200 380H240Q280 380 315 393T377 433T419 496T434 583Q434
646 408 680T329 714Q277 714 246 691T200 627T179 531Q158 531 143 542T127 582Q127 621 153 653T224 705T329 724Q407 724 455 684T503 576Q503 538 489 504T447 444T380 400T289 376Q338 372 374 353T431 300T452 221Q452 160 432 116T376 45T295 4T200 -10Z"
/>
<glyph unicode="4" horiz-adv-x="537" d="M140 0L142 10H206Q231 10 247 14T274 33T291 78L373 469Q384 520 398 581T427 702Q416 687 400 668T366 628T330 584L38 242L39 246H517L508 204H12L19 234L427 714H491L356 76Q354 68 353 59T351 45Q351 23 366 17T413
10H454L451 0H140Z" />
<glyph unicode="5" horiz-adv-x="537" d="M196 -10Q135 -10 97 7T42 51T24 104Q24 125 36 137T76 150Q76 108 88 74T127 20T198 0Q238 0 273 15T333 60T372 137T386 244Q386 292 373 330T331 390T255 413Q219 413 188 403T122 368L113 371L217 714H523L497 582H487Q490
598 491 612T493 634Q493 647 485 653T457 659H211L127 381Q146 395 168 404T213 419T259 424Q318 424 362 403T431 341T456 240Q456 187 439 142T388 62T306 9T196 -10Z" />
<glyph unicode="6" horiz-adv-x="537" d="M251 -10Q200 -10 160 17T97 97T74 228Q74 310 89 384T134 520T204 627T295 698T404 724Q472 724 507 697T542 628Q542 604 527 589T483 574Q483 613 478 645T455 695T403 714Q360 714 322 691T251 623T194 516T154 372Q181
394 222 413T314 433Q370 433 407 409T462 346T481 258Q481 206 467 158T425 72T353 12T251 -10ZM255 0Q297 0 327 20T376 76T405 158T414 254Q414 305 403 342T367 399T304 420Q264 420 225 403T152 358Q148 336 145 312T141 262T139 213Q139 142 152 95T191 24T255
0Z" />
<glyph unicode="7" horiz-adv-x="537" d="M143 0L544 659H197Q175 659 163 650T145 619L125 549H115L156 714H577L571 688L198 0H143Z" />
<glyph unicode="8" horiz-adv-x="537" d="M238 -10Q140 -10 86 37T32 157Q32 213 59 253T135 322T247 368Q208 393 182 419T143 476T130 540Q130 589 154 631T227 698T353 724Q442 724 488 683T534 578Q534 527 510 491T442 429T337 383Q385 359 418 331T468 270T485
193Q485 123 452 78T363 11T238 -10ZM245 0Q300 0 339 19T400 78T421 173Q421 216 404 247T351 306T256 361Q207 340 172 312T117 244T97 149Q97 105 113 72T163 19T245 0ZM326 390Q409 427 441 472T473 582Q473 618 462 648T423 696T350 714Q301 714 267 695T214
639T195 551Q195 519 208 491T250 439T326 390Z" />
<glyph unicode="9" horiz-adv-x="537" d="M183 -10Q128 -10 97 4T52 41T39 84Q39 104 50 117T84 130Q84 95 92 66T123 18T187 0Q233 0 271 25T339 99T391 213T430 360Q404 328 363 307T271 286Q189 286 144 336T98 469Q98 527 115 574T164 654T237 706T326 724Q383
724 423 696T484 615T506 488Q506 427 494 359T458 226T395 107T304 22T183 -10ZM278 298Q327 298 365 321T431 375Q434 394 436 418T439 466T441 509Q441 572 429 618T392 689T326 714Q287 714 257 696T207 645T176 567T165 468Q165 415 177 377T215 319T278 298Z"
/>
<glyph unicode=":" horiz-adv-x="245" d="M61 -8Q46 -8 38 0T29 29Q29 57 42 80T82 104Q97 104 106 96T115 67Q115 48 110 31T92 3T61 -8ZM154 429Q139 429 131 437T122 466Q122 494 135 517T175 541Q190 541 199 533T208 504Q208 485 203 468T185 440T154 429Z" />
<glyph unicode=";" horiz-adv-x="245" d="M-27 -134Q10 -125 33 -109T66 -73T77 -30Q77 -11 68 -1T48 16T28 31T19 57Q19 78 32 90T66 103Q91 103 107 84T124 32Q124 -8 110 -43T63 -104T-26 -143L-27 -134ZM154 429Q139 429 131 437T122 466Q122 494 135 517T175
541Q190 541 199 533T208 504Q208 485 203 468T185 440T154 429Z" />
<glyph unicode="&lt;" horiz-adv-x="559" d="M488 119L59 347V367L488 595V572L81 357L488 142V119Z" />
<glyph unicode="=" horiz-adv-x="559" d="M87 455V475H510V455H87ZM87 239V259H510V239H87Z" />
<glyph unicode="&gt;" horiz-adv-x="559" d="M108 119V142L515 357L108 572V595L537 367V347L108 119Z" />
<glyph unicode="?" horiz-adv-x="471" d="M194 329Q245 337 285 359T352 414T394 488T408 573Q408 620 395 651T358 698T298 714Q250 714 222 691T179 628T160 542Q136 542 124 553T112 586Q112 622 133 653T197 704T301 724Q380 724 427 684T474 573Q474 511
444 461T359 377T231 326L192 195H179L194 329ZM153 -8Q138 -8 130 0T121 29Q121 57 134 80T174 104Q189 104 198 96T207 67Q207 48 202 31T184 3T153 -8Z" />
<glyph unicode="@" horiz-adv-x="886" d="M414 -142Q310 -142 234 -104T115 10T73 203Q73 317 107 410T204 572T349 677T530 714Q636 714 709 672T821 557T860 392Q860 321 842 263T794 164T728 100T655 77Q633 77 614 84T579 106T554 146T545 205H543Q532 169
511 140T462 94T396 77Q341 77 305 116T268 238Q268 290 284 341T331 435T406 503T506 529Q541 529 565 518T603 490L653 520H662L609 277Q600 241 597 217T594 172Q594 129 610 109T659 88Q688 88 715 108T764 167T800 264T814 395Q814 496 778 565T677 669T529
704Q445 704 373 669T245 569T160 413T129 207Q129 114 150 49T209 -55T301 -113T418 -131Q493 -131 559 -105T683 -35L689 -44Q652 -72 609 -94T517 -129T414 -142ZM411 91Q443 91 469 111T514 165T542 241L592 476Q585 493 564 505T513 518Q476 518 447 500T395
450T359 380T337 299T330 217Q330 148 352 120T411 91Z" />
<glyph unicode="A" horiz-adv-x="676" d="M-62 0L-60 10H-34Q-11 10 2 15T30 39T67 98L416 714H455L552 79Q556 49 562 34T579 15T608 10H621L619 0H389L391 10H421Q458 10 472 21T487 56Q487 65 486 77T484 96L430 473Q426 503 421 542T412 618T405 679Q396 662
385 641T360 597T332 547T300 491L80 102Q70 84 64 68T57 40Q57 22 69 16T110 10H168L166 0H-62ZM162 259L167 269H494L495 259H162Z" />
<glyph unicode="B" horiz-adv-x="626" d="M-14 0L-11 10H13Q47 10 68 19T96 64L221 653Q223 658 223 664T224 673Q224 692 208 698T168 704H135L137 714H372Q491 714 546 676T601 564Q601 505 574 466T500 404T394 376L393 374Q445 370 482 352T539 301T559 225Q559
173 542 131T491 60T404 16T280 0H-14ZM258 10Q321 10 365 26T435 71T474 140T487 230Q487 297 446 333T319 370H229L152 10H258ZM321 380Q381 380 421 394T484 434T518 494T529 567Q529 634 490 669T367 704H299L231 380H321Z" />
<glyph unicode="C" horiz-adv-x="610" d="M323 -10Q241 -10 183 23T93 116T61 257Q61 328 78 396T129 524T209 628T315 698T445 724Q533 724 580 691T627 600Q627 575 610 560T565 544Q565 577 561 607T543 662T506 700T442 714Q384 714 336 686T250 611T187 503T147
377T133 248Q133 173 156 117T224 31T329 0Q378 0 412 17T469 64T507 133Q514 131 517 125T521 109Q521 84 500 56T436 9T323 -10Z" />
<glyph unicode="D" horiz-adv-x="695" d="M-14 0L-11 10H15Q50 10 70 20T98 70L221 653Q223 658 223 663T224 673Q224 693 208 698T169 704H135L137 714H390Q523 714 595 645T668 442Q668 371 652 305T604 184T525 87T417 23T280 0H-14ZM261 11Q323 11 375 31T468
90T537 183T581 303T596 448Q596 536 571 593T498 677T386 704H300L152 11H261Z" />
<glyph unicode="E" horiz-adv-x="610" d="M-14 0L-11 10H16Q51 10 69 20T95 62L220 652Q222 656 222 660T223 669Q223 691 208 697T169 704H135L137 714H619L588 545H578Q580 558 581 571T584 598T585 622Q585 647 581 665T561 693T515 704H299L231 380H480L478
370H228L152 10H396Q425 10 444 16T476 36T498 69T516 117L532 169H542L500 0H-14Z" />
<glyph unicode="F" horiz-adv-x="568" d="M-14 0L-12 10H15Q47 10 67 19T96 62L220 647Q222 654 223 662T224 674Q224 693 209 698T166 704H135L137 714H614L583 545H573Q576 570 579 591T582 627Q582 650 576 667T553 694T500 704H300L226 357H475L473 347H223L165
66Q164 60 163 55T162 46Q162 22 175 16T211 10H255L253 0H-14Z" />
<glyph unicode="G" horiz-adv-x="683" d="M333 -10Q197 -10 129 62T61 258Q61 335 80 404T136 532T224 634T338 700T473 724Q522 724 559 716T622 691T660 653T673 605Q673 586 665 574T642 555T608 548Q608 603 597 639T554 695T465 714Q419 714 376 697T296
649T229 575T178 480T145 370T133 249Q133 179 151 123T214 33T335 0Q374 0 411 7T474 26L525 263Q527 268 527 274T528 283Q528 301 511 307T462 314H441L443 324H674L672 314H662Q643 314 630 310T607 294T592 259L543 34Q491 13 442 2T333 -10Z" />
<glyph unicode="H" horiz-adv-x="760" d="M-14 0L-12 10H14Q50 10 70 21T98 68L220 645Q222 651 222 658T223 670Q223 683 217 690T197 701T163 704H136L137 714H399L398 704H371Q335 704 315 693T287 644L231 378H593L649 642Q651 649 652 657T653 670Q653 690
638 697T593 704H565L566 714H829L827 704H801Q765 704 745 692T715 637L595 69Q594 64 593 58T592 47Q592 32 600 24T621 13T653 10H679L677 0H415L417 10H444Q480 10 500 21T528 70L590 368H228L165 66Q164 61 163 55T162 43Q162 25 177 18T223 10H250L248 0H-14Z"
/>
<glyph unicode="I" horiz-adv-x="329" d="M-14 0L-13 10H14Q49 10 69 22T98 74L219 642Q221 649 222 657T223 670Q223 690 208 697T162 704H135L137 714H398L396 704H370Q334 704 314 692T285 637L166 74Q164 67 163 59T161 44Q161 23 177 17T222 10H249L247 0H-14Z" />
<glyph unicode="J" horiz-adv-x="335" d="M-69 -240Q-95 -240 -113 -237T-149 -229L-145 -218Q-130 -222 -114 -224T-83 -227Q-45 -227 -17 -209T31 -148T67 -29L211 647Q213 653 213 659T214 670Q214 691 198 697T153 704H122L124 714H392L390 704H361Q326 704
307 693T279 645L137 -16Q120 -96 94 -145T27 -217T-69 -240Z" />
<glyph unicode="K" horiz-adv-x="679" d="M-14 0L-12 10H14Q38 10 54 15T82 35T100 80L219 645Q221 650 221 657T222 668Q222 690 207 697T162 704H135L137 714H398L396 704H370Q346 704 330 700T303 683T286 641L210 288L569 615Q594 638 605 652T617 680Q617
689 609 694T585 701T541 704L544 714H738L736 704Q718 704 703 700T670 686T631 657T579 610L355 403L375 432L515 96Q527 67 537 48T561 20T594 10H608L606 0H585Q553 0 530 4T491 17T465 41T444 78L322 380L346 393L207 272L168 80Q166 71 164 62T162 45Q162
25 178 18T223 10H249L247 0H-14Z" />
<glyph unicode="L" horiz-adv-x="596" d="M-14 0L-11 10H12Q37 10 54 14T82 34T99 83L220 650Q222 655 222 661T223 672Q223 694 207 699T162 704H135L137 714H398L396 704H370Q335 704 316 693T287 644L152 10H386Q421 10 444 23T482 64T507 128L529 210H539L488 0H-14Z" />
<glyph unicode="M" horiz-adv-x="911" d="M-14 0L-12 10H15Q41 10 60 14T92 32T112 72L230 627Q233 639 234 650T236 668Q236 691 216 697T162 704H135L137 714H304L439 70L824 714H981L979 704H952Q917 704 897 694T869 645L751 85Q748 73 747 62T745 44Q745
22 760 16T805 10H831L829 0H581L583 10H605Q628 10 643 15T668 35T685 84L809 667L409 0H388L248 666L122 72Q121 66 120 58T118 45Q118 25 137 18T192 10H220L218 0H-14Z" />
<glyph unicode="N" horiz-adv-x="717" d="M-14 0L-12 10H15Q41 10 60 14T90 31T108 73L230 644Q232 652 233 660T234 673Q234 692 217 698T170 704H135L137 714H301L547 92L661 627Q665 639 666 650T667 668Q667 690 647 697T590 704H555L557 714H797L795 704H769Q742
704 723 699T691 677T671 625L538 0H515L246 671L119 77Q117 67 116 58T114 42Q114 23 133 17T188 10H228L226 0H-14Z" />
<glyph unicode="O" horiz-adv-x="718" d="M313 -11Q242 -11 185 19T95 112T61 266Q61 324 76 387T123 510T200 618T308 696T446 725Q512 725 569 696T660 607T695 450Q695 402 685 350T653 246T601 148T527 66T431 10T313 -11ZM316 -1Q377 -1 426 27T512 104T573
214T610 339T622 464Q622 559 599 613T535 691T442 715Q381 715 332 687T246 610T184 501T146 376T133 251Q133 154 157 99T224 22T316 -1Z" />
<glyph unicode="P" horiz-adv-x="589" d="M-14 0L-12 10H14Q50 10 69 22T98 78L218 642Q220 648 221 656T222 668Q222 690 206 697T158 704H135L137 714H370Q439 714 487 692T560 629T586 534Q586 499 579 464T554 397T501 340T414 301T283 286H211L165 73Q163
67 162 59T161 45Q161 25 173 18T211 10H256L254 0H-14ZM270 296Q337 296 384 312T460 360T502 436T516 537Q516 620 479 662T361 704H299L213 296H270Z" />
<glyph unicode="Q" horiz-adv-x="718" d="M452 -218Q405 -218 373 -203T320 -161T289 -94T275 -8Q213 -1 165 32T89 123T61 266Q61 324 76 387T123 510T200 618T308 696T446 725Q512 725 569 696T660 607T695 450Q695 394 682 334T640 215T571 109T473 29T346
-9Q349 -62 358 -99T383 -159T421 -192T474 -203Q495 -203 515 -200T554 -192L556 -202Q533 -208 511 -213T452 -218ZM316 -1Q377 -1 426 27T512 103T573 211T610 336T622 464Q622 557 599 612T535 691T441 715Q381 715 332 687T245 610T183 501T146 376T133 251Q133
156 156 101T222 23T316 -1Z" />
<glyph unicode="R" horiz-adv-x="617" d="M-14 0L-12 10H14Q38 10 54 14T81 33T98 76L218 642Q220 650 221 658T222 671Q222 692 207 698T164 704H135L137 714H374Q480 714 534 672T588 543Q588 503 574 469T533 407T470 363T386 339L458 110Q469 75 479 53T502
20T538 10H552L550 0H529Q485 0 458 8T415 38T386 105L321 333H220L165 72Q164 65 163 57T161 44Q161 25 176 18T222 10H267L265 0H-14ZM317 343Q380 343 425 365T493 432T517 543Q517 599 502 635T454 687T373 704H299L222 343H317Z" />
<glyph unicode="S" horiz-adv-x="519" d="M214 -10Q142 -10 95 11T24 67T1 144Q1 171 17 185T55 199Q55 141 70 96T121 26T214 0Q272 0 312 20T374 79T395 171Q395 203 385 228T345 279T257 338Q217 363 186 389T138 450T121 532Q121 573 136 608T181 669T252
709T347 724Q407 724 446 708T504 667T523 611Q523 587 510 574T469 560Q469 589 465 616T450 665T414 701T347 714Q305 714 268 696T208 639T185 542Q185 506 199 480T241 433T308 387Q364 353 398 323T447 261T462 188Q462 141 445 104T396 42T317 4T214 -10Z"
/>
<glyph unicode="T" horiz-adv-x="590" d="M92 0L95 10H118Q150 10 170 16T203 39T221 87L353 704H256Q211 704 183 695T137 663T108 597L96 550H86L126 714H654L624 550H614Q618 571 620 586T623 613T625 635Q625 674 605 689T534 704H420L288 83Q287 74 286 68T284
54Q284 29 302 20T358 10H382L379 0H92Z" />
<glyph unicode="U" horiz-adv-x="709" d="M324 -10Q224 -10 167 35T109 162Q109 178 112 206T122 259L200 627Q203 638 204 649T206 668Q206 690 191 697T146 704H119L121 714H384L382 704H355Q331 704 315 699T287 677T267 625L188 257Q184 236 181 217T177 182T175
152Q175 81 216 42T327 2Q409 2 458 30T533 104T572 207L662 627Q665 637 666 646T667 662Q667 690 649 697T601 704H577L579 714H787L786 704H759Q736 704 719 699T691 678T671 625L582 204Q568 138 538 90T456 16T324 -10Z" />
<glyph unicode="V" horiz-adv-x="661" d="M152 656Q148 686 138 695T101 704H85L88 714H315L313 704H290Q256 704 240 695T223 664Q223 658 223 650T225 635L277 247Q280 224 283 199T291 150T297 103T302 62Q315 86 331 115T364 177T400 242L603 612Q615 634
621 648T627 673Q627 690 612 697T565 704H525L527 714H748L746 704H728Q703 704 687 699T656 678T622 626L278 0H247L152 656Z" />
<glyph unicode="W" horiz-adv-x="1020" d="M167 635Q164 665 159 680T142 699T112 704H97L99 714H334L332 704H294Q263 704 248 693T233 660Q233 651 234 640T236 618L268 243Q271 215 272 192T276 150T279 115T281 85T283 57Q299 92 318 132T362 227L588 707H622L667
248Q670 221 672 195T677 145T681 99T684 60Q692 77 701 96T720 138T743 184T769 236L952 612Q963 634 968 648T973 673Q973 691 960 697T917 704H885L887 714H1096L1093 704H1080Q1055 704 1038 700T1005 679T971 626L664 0H622L563 630L266 0H224L167 635Z" />
<glyph unicode="X" horiz-adv-x="619" d="M-50 0L-48 10H-37Q-13 10 5 15T42 35T86 82L313 365L303 345L193 656Q183 685 168 694T124 704H109L111 714H343L341 704H304Q282 704 274 698T265 680Q265 671 269 659T279 628L354 399L344 392L523 624Q536 641 544
653T552 678Q552 688 545 693T523 701T487 704H465L467 714H683L681 704H667Q644 704 625 699T585 677T539 626L345 379L355 397L477 59Q488 28 501 19T536 10H555L552 0H318L321 10H346Q374 10 388 17T402 40Q402 49 399 60T390 89L304 342L315 352L123 112Q102
85 89 67T76 36Q76 26 83 21T105 13T142 10H175L172 0H-50Z" />
<glyph unicode="Y" horiz-adv-x="585" d="M104 0L106 10H138Q173 10 192 21T221 72L274 319L155 657Q145 685 136 694T99 704H86L88 714H326L324 704H264Q244 704 235 699T225 681Q225 674 226 667T229 652T235 634L296 449Q303 430 310 408T324 365T337 326Q352
347 369 370T407 420L557 622Q572 641 579 654T587 679Q587 692 577 698T541 704H482L484 714H687L685 704H663Q649 704 638 698T614 678T583 639L342 317L289 70Q288 64 287 57T285 44Q285 24 301 17T346 10H378L376 0H104Z" />
<glyph unicode="Z" horiz-adv-x="569" d="M-21 0L-19 10L517 702H243Q204 702 180 694T142 667T118 620L100 563H90L128 714H600L598 704L60 12H366Q407 12 431 24T470 58T493 109L507 156H517L479 0H-21Z" />
<glyph unicode="[" horiz-adv-x="283" d="M-24 -128L165 760H357L355 750H301Q276 750 260 746T233 727T215 681L54 -64Q53 -69 52 -76T50 -87Q50 -105 66 -111T113 -118H170L169 -128H-24Z" />
<glyph unicode="\" horiz-adv-x="241" d="M148 -121L105 760H114L158 -121H148Z" />
<glyph unicode="]" horiz-adv-x="283" d="M-53 -128L-51 -118H2Q28 -118 44 -114T71 -95T88 -49L247 684Q250 694 251 704T253 719Q253 740 237 745T191 750H134L135 760H327L139 -128H-53Z" />
<glyph unicode="^" horiz-adv-x="559" d="M81 261L265 714H289L475 261H453L277 694L103 261H81Z" />
<glyph unicode="_" horiz-adv-x="459" d="M-86 -117L-82 -97H386L382 -117H-86Z" />
<glyph unicode="`" horiz-adv-x="233" d="M256 606Q241 624 226 644T195 684T167 722T145 757L146 766H209Q215 745 224 719T244 666T266 615L265 606H256Z" />
<glyph unicode="a" horiz-adv-x="536" d="M155 -10Q113 -10 86 11T46 73T33 168Q33 215 45 267T81 368T139 458T219 522T319 546Q356 546 380 535T424 505L463 535H485L413 208Q410 193 406 170T399 122T396 83Q396 49 406 31T437 13Q457 13 475 22T515 50L520
42Q507 29 488 17T447 -2T403 -10Q369 -10 351 12T332 74Q332 92 335 112T342 156H339Q300 69 253 30T155 -10ZM178 9Q209 9 237 31T289 88T330 163T355 241L410 496Q398 516 374 525T324 535Q282 535 247 510T185 444T139 354T111 255T101 166Q101 107 111 73T138
24T178 9Z" />
<glyph unicode="b" horiz-adv-x="525" d="M207 -10Q173 -10 147 2T102 32L63 -3H41L184 672Q187 687 189 697T191 715Q191 737 176 743T133 750H108L110 760H269L218 517Q214 497 209 474T198 431T188 396H191Q214 440 241 473T301 526T373 546Q411 546 437 526T477
467T491 367Q491 318 479 265T443 163T384 75T305 13T207 -10ZM200 1Q245 1 280 26T343 93T388 185T414 285T423 377Q423 435 415 468T391 514T353 528Q322 528 293 508T239 456T198 387T174 316L115 41Q129 24 150 13T200 1Z" />
<glyph unicode="c" horiz-adv-x="456" d="M219 -10Q166 -10 126 13T62 81T39 197Q39 243 50 292T84 386T140 468T218 525T318 546Q365 546 396 531T442 494T457 445Q457 430 450 419T428 401T394 394Q395 400 395 408T396 425Q396 481 376 508T313 536Q276 536
244 515T187 459T145 379T118 286T108 193Q108 100 139 51T226 1Q263 1 289 15T334 54T365 112Q371 110 375 105T379 92Q379 70 361 46T308 6T219 -10Z" />
<glyph unicode="d" horiz-adv-x="536" d="M152 -10Q109 -10 83 13T45 76T33 168Q33 215 45 267T81 368T139 458T219 522T319 546Q348 546 372 538T415 515Q418 533 422 550T430 585L451 681Q454 691 455 699T457 715Q457 737 442 743T402 750H374L376 760H532L413
208Q410 193 406 170T399 124T396 86Q396 49 405 31T437 13Q456 13 476 23T515 50L520 42Q507 29 488 17T447 -2T403 -10Q369 -10 351 12T332 78Q332 93 335 113T343 156H339Q313 99 283 63T220 8T152 -10ZM176 11Q208 11 236 32T287 86T326 155T350 222L412 501Q398
517 374 526T323 535Q280 535 245 510T183 444T138 353T111 255T101 166Q101 109 110 75T137 26T176 11Z" />
<glyph unicode="e" horiz-adv-x="449" d="M217 -10Q168 -10 127 13T62 81T38 194Q38 239 49 288T83 383T139 466T215 524T312 546Q371 546 403 516T435 433Q435 379 398 338T297 272T153 248H112Q111 242 110 232T109 210T108 190Q108 131 122 88T161 23T221 0Q279
0 312 32T362 114Q368 112 372 106T376 91Q376 71 358 47T304 7T217 -10ZM149 258Q198 258 238 270T307 306T351 363T367 438Q367 488 351 511T300 535Q264 535 235 513T182 451T141 361T114 258H149Z" />
<glyph unicode="f" horiz-adv-x="280" d="M-85 -240Q-100 -240 -115 -238T-141 -232L-139 -222Q-131 -224 -117 -226T-92 -229Q-60 -229 -38 -210T1 -146T34 -24L151 526H63L64 532L153 536L165 596Q181 678 221 724T332 770Q386 770 414 748T443 692Q443 668
428 656T386 643Q386 700 375 730T331 760Q304 760 287 745T258 702T237 630L217 536H318L316 526H215L98 -24Q84 -88 67 -130T29 -196T-21 -230T-85 -240Z" />
<glyph unicode="g" horiz-adv-x="524" d="M164 -240Q97 -240 51 -226T-20 -182T-45 -107Q-45 -64 -21 -33T44 16T138 38Q101 50 88 69T74 110Q74 136 94 160T168 199Q134 214 113 245T92 321Q92 356 104 395T143 468T210 524T308 546Q339 546 364 538T407 513Q423
532 437 546T468 568T505 576Q527 576 538 565T550 535Q550 519 541 505T507 491Q507 516 500 530T474 544Q459 544 445 535T415 506Q429 490 439 466T449 410Q449 378 438 340T400 268T333 211T232 188Q224 188 215 189T196 191T179 195Q145 182 130 167T114 129Q114
109 131 101T181 88L263 80Q313 75 346 60T397 17T415 -48Q415 -89 400 -124T355 -185T277 -225T164 -240ZM165 -230Q235 -230 277 -207T337 -148T356 -70Q356 -28 329 -6T250 22L152 32Q85 22 48 -12T11 -104Q11 -157 46 -193T165 -230ZM235 198Q270 198 295 212T338
251T366 305T382 364T387 418Q387 462 377 487T349 524T305 536Q271 536 246 522T204 485T175 432T159 374T154 319Q154 257 176 228T235 198Z" />
<glyph unicode="h" horiz-adv-x="555" d="M434 -10Q395 -10 375 16T355 87Q355 110 359 141T373 214L396 316Q400 333 404 354T412 398T416 441Q416 462 411 480T393 511T353 523Q321 523 292 502T238 451T199 390T179 339L108 0H44L183 670Q187 685 188 696T190
713Q190 736 173 743T122 750H108L110 760H266L221 546Q217 525 213 505T204 465T196 430T189 404H192Q220 450 249 481T310 528T378 544Q416 544 438 529T471 490T481 436Q481 412 475 383T463 328L435 203Q428 170 423 140T418 85Q418 51 430 33T467 15Q482 15
498 23T533 48L539 40Q524 28 508 16T474 -3T434 -10Z" />
<glyph unicode="i" horiz-adv-x="273" d="M145 -10Q106 -10 89 17T71 84Q71 104 74 127T81 173T90 214L141 468Q143 475 143 480T144 491Q144 513 129 519T82 526H65L67 536H219L144 175Q142 163 139 147T135 115T133 87Q133 50 144 34T175 17Q197 17 214 26T251
50L257 42Q236 23 207 7T145 -10ZM210 656Q195 656 185 665T174 696Q174 712 178 723T192 740T213 746Q229 746 239 738T250 707Q250 678 238 667T210 656Z" />
<glyph unicode="j" horiz-adv-x="263" d="M-85 -240Q-101 -240 -115 -238T-140 -233L-138 -223Q-129 -225 -116 -227T-91 -229Q-56 -229 -32 -209T11 -141T44 -16L142 451Q144 459 145 468T146 486Q146 512 132 519T86 526H69L71 536H223L109 -11Q90 -99 64 -149T1
-219T-85 -240ZM214 656Q199 656 189 665T178 696Q178 712 182 723T196 740T217 746Q233 746 243 738T254 707Q254 677 242 667T214 656Z" />
<glyph unicode="k" horiz-adv-x="555" d="M483 -7Q438 -6 411 1T365 30T327 95L241 299L257 306L154 220L108 0H44L182 669Q186 682 188 694T190 713Q190 735 175 742T134 750H108L110 760H266L227 573Q221 545 214 511T199 439T183 364T168 294T156 235L406 444Q434
467 444 479T454 503Q454 514 436 520T367 526L369 536H570L568 526Q534 526 505 507T433 453L264 312L288 339L395 96Q410 65 421 44T449 13T494 3L492 -7H483Z" />
<glyph unicode="l" horiz-adv-x="276" d="M147 -10Q108 -10 90 16T72 80Q72 98 75 121T82 167T90 206L188 680Q190 690 191 699T192 713Q192 736 177 743T135 750H108L110 760H269L149 187Q147 175 144 158T138 122T136 90Q136 56 145 37T178 17Q199 17 217 26T255
50L260 42Q246 29 228 17T190 -2T147 -10Z" />
<glyph unicode="m" horiz-adv-x="848" d="M727 -10Q685 -10 666 18T647 87Q647 111 651 139T662 203L689 316Q692 333 697 354T705 397T708 439Q708 457 704 475T686 506T642 519Q610 519 583 501T534 457T498 407T479 369L440 202Q435 183 430 156T422 100T415
44T412 0H347Q347 18 350 44T357 100T367 159T378 212L401 316Q407 342 414 376T421 439Q421 458 416 476T395 507T352 519Q321 519 293 500T243 454T206 401T188 360L113 0H49L141 445Q144 458 145 469T146 485Q146 511 129 518T79 526H65L67 536H221L196 408H198Q226
454 255 484T315 529T383 544Q440 544 463 512T486 436Q486 429 486 422T483 408H485Q515 455 543 485T603 529T671 544Q709 544 731 529T763 490T773 436Q773 412 767 383T755 328L719 166Q716 148 713 128T710 87Q710 57 720 36T755 15Q769 15 780 19T803 30T827
48L832 40Q810 21 786 6T727 -10Z" />
<glyph unicode="n" horiz-adv-x="561" d="M439 -10Q400 -10 380 14T360 83Q360 109 365 141T378 214L402 321Q405 332 409 352T418 396T422 439Q422 456 417 474T398 505T355 519Q324 519 295 500T243 450T203 386T181 325L113 0H49L140 438Q142 449 143 462T145
484Q145 511 129 518T79 526H65L67 536H223L194 393H196Q224 444 253 477T315 527T384 544Q422 544 443 529T475 490T486 437Q486 412 480 383T468 328L439 196Q432 168 428 139T423 81Q423 51 433 34T469 16Q480 16 490 19T513 29T539 48L545 40Q520 19 495 5T439
-10Z" />
<glyph unicode="o" horiz-adv-x="535" d="M218 -10Q139 -10 89 40T38 194Q38 237 49 285T82 380T137 464T216 524T318 546Q369 546 409 525T473 459T497 341Q497 298 487 251T455 157T400 73T322 13T218 -10ZM219 0Q263 0 296 22T355 82T396 166T420 260T428 351Q428
416 415 457T377 517T315 536Q273 536 240 514T182 455T141 371T116 276T107 184Q107 83 137 42T219 0Z" />
<glyph unicode="p" horiz-adv-x="528" d="M137 428Q142 450 144 465T146 487Q146 512 129 519T79 526H65L67 536H216L193 400H195Q215 439 241 472T300 526T375 546Q415 546 441 526T481 466T495 368Q495 325 484 274T449 173T392 81T310 15T205 -10Q176 -10 155
-3T113 16Q111 4 110 -7T104 -35L78 -149Q77 -157 74 -171T71 -194Q71 -218 89 -224T139 -230H156L154 -240H-4L137 428ZM205 1Q247 1 282 25T344 90T389 180T417 278T427 368Q427 417 420 451T397 504T350 522Q317 522 289 502T238 449T201 383T180 321L117 28Q128
20 149 11T205 1Z" />
<glyph unicode="q" horiz-adv-x="509" d="M304 -12Q307 5 312 28T323 75T334 120T343 154H340Q321 112 295 75T234 14T154 -10Q117 -10 90 10T48 71T33 169Q33 215 45 267T81 368T140 458T221 522T323 546Q354 546 378 539T420 516L461 546H485L337 -152Q334 -167
332 -178T330 -196Q330 -218 346 -224T394 -230H411L408 -240H255L304 -12ZM182 11Q210 11 237 30T288 82T329 154T354 233L410 504Q399 517 379 526T330 535Q284 535 248 510T184 443T138 352T110 253T101 166Q101 113 111 79T140 28T182 11Z" />
<glyph unicode="r" horiz-adv-x="429" d="M145 438Q148 453 149 465T151 484Q151 511 131 518T79 526H65L67 536H219L196 398H198Q217 439 239 472T291 526T361 546Q403 546 420 527T438 482Q438 465 431 453T411 434T378 427Q379 434 379 440T379 451Q379 476
374 491T359 514T331 522Q305 522 282 503T239 454T207 391T187 329L118 0H54L145 438Z" />
<glyph unicode="s" horiz-adv-x="434" d="M182 -10Q134 -10 100 6T48 48T30 108Q30 128 38 139T58 155T81 160Q80 152 80 145T80 131Q80 93 91 63T125 17T184 0Q242 0 275 33T308 124Q308 152 297 174T264 215T207 251Q170 270 144 290T105 337T92 401Q92 444
113 476T172 527T261 546Q311 546 342 531T388 492T403 443Q403 420 388 408T349 395Q350 402 350 409T351 423Q351 473 330 504T258 536Q204 536 177 504T149 420Q149 391 160 370T193 333T248 300Q284 284 310 262T350 212T365 148Q365 103 344 68T282 11T182
-10Z" />
<glyph unicode="t" horiz-adv-x="332" d="M165 -10Q132 -10 111 2T80 38T70 92Q70 104 71 118T76 150T84 191L155 526H79L81 534Q116 534 140 539T182 557T212 595T237 659H247L222 536H337L335 526H219L147 186Q142 161 139 142T134 110T132 86Q132 49 146 31T192
13Q215 13 236 19T278 36L283 27Q255 10 225 0T165 -10Z" />
<glyph unicode="u" horiz-adv-x="552" d="M430 -10Q406 -10 390 2T367 35T359 84Q359 91 359 99T361 119T363 143H361Q337 97 309 63T246 10T169 -9Q132 -9 110 6T77 47T66 102Q66 127 73 159T87 220L132 416Q136 435 140 457T144 489Q144 513 128 519T79 526H65L67
536H223L154 234Q149 214 144 190T136 144T132 107Q132 61 147 37T196 12Q229 12 258 31T310 81T349 143T370 199L441 536H507L437 209Q434 194 430 172T424 128T421 88Q421 53 430 34T461 14Q481 14 496 23T529 46L535 39Q517 22 490 6T430 -10Z" />
<glyph unicode="v" horiz-adv-x="490" d="M93 469Q90 494 84 506T66 522T35 526H20L22 536H147L192 240Q198 203 203 162T214 85T221 22H223Q290 93 339 162T416 295T443 417Q443 458 421 473T366 489Q366 517 381 530T414 543Q440 543 454 522T468 454Q468 411
455 365T417 271T360 177T291 86T216 0L166 -9L93 469Z" />
<glyph unicode="w" horiz-adv-x="780" d="M440 -12Q440 26 439 79T435 193T431 314T427 424T424 508Q412 481 393 439T349 346T300 244T251 144T208 58T177 -2L121 -11L112 459Q112 490 107 503T92 521T62 526H45L48 536H172Q173 495 174 443T176 334T178 223T179
118T179 30H182Q200 64 224 112T276 215T329 327T379 435T421 527L476 531Q479 502 481 453T487 345T492 226T496 111T497 18H500Q572 107 624 182T706 319T735 436Q735 470 720 484T674 502Q676 522 687 534T718 546Q739 546 751 528T763 471Q763 430 747 382T697
276T614 149T495 -3L440 -12Z" />
<glyph unicode="x" horiz-adv-x="497" d="M-23 0L-21 10H-8Q14 10 29 13T58 29T93 70L231 263L158 463Q149 489 142 502T127 521T102 526H85L87 536H198L275 310L433 536H513L510 526H496Q479 526 464 522T432 505T396 462L280 299L362 68Q371 44 377 32T392 15T421
10H432L430 0H320L235 252L58 0H-23Z" />
<glyph unicode="y" horiz-adv-x="487" d="M-60 -240Q-83 -240 -106 -235T-147 -222L-144 -213Q-132 -218 -113 -222T-63 -226Q-14 -226 27 -215T103 -180T171 -119T235 -27L84 479Q75 508 66 517T29 526H17L19 536H135L229 223Q234 205 241 179T255 125T268 74T277
36H279Q307 81 335 131T388 232T427 333T442 424Q442 449 435 463T410 485T366 493Q366 517 380 530T413 544Q438 544 451 524T465 461Q465 400 444 336T386 201T302 53Q254 -26 215 -82T137 -172T52 -223T-60 -240Z" />
<glyph unicode="z" horiz-adv-x="463" d="M1 0L3 10L372 524H228Q196 524 176 517T143 491T120 441L107 406H97L135 536H446L444 526L65 12H258Q297 12 319 20T353 46T376 95L393 151H403L366 0H1Z" />
<glyph unicode="{" horiz-adv-x="420" d="M228 -130Q178 -130 151 -106T124 -33Q124 -22 126 -10T130 16L165 179Q167 191 169 204T171 226Q171 273 147 291T73 310L75 321Q112 323 141 332T191 367T221 442L258 618Q269 668 285 699T332 745T418 760H467L465
750H437Q404 750 383 740T349 704T326 633L286 441Q278 406 261 380T215 337T143 316V313Q176 310 197 298T228 267T238 223Q238 214 237 203T232 180L196 12Q193 -2 191 -16T189 -46Q189 -82 203 -101T250 -120H286L284 -130H228Z" />
<glyph unicode="|" horiz-adv-x="559" d="M263 -240V760H294V-240H263Z" />
<glyph unicode="}" horiz-adv-x="419" d="M-27 -130L-25 -120H3Q37 -120 58 -108T92 -68T115 10L153 190Q161 225 178 251T223 293T291 316V318Q261 322 241 334T212 365T202 408Q202 417 204 428T208 451L244 618Q247 632 249 647T251 676Q251 713 236 731T190
750H153L155 760H211Q263 760 289 737T315 664Q315 652 314 640T310 614L274 450Q271 438 270 426T269 405Q269 357 293 340T366 321L364 311Q328 309 299 299T249 264T219 189L182 12Q172 -38 156 -69T108 -115T22 -130H-27Z" />
<glyph unicode="~" horiz-adv-x="559" d="M83 277Q88 300 93 327T110 379T140 420T189 436Q224 436 251 416T303 369Q329 343 353 320T408 297Q438 297 454 319T478 374T494 436H513Q510 418 504 391T487 338T456 295T406 277Q369 277 341 303T287 357Q272 374
257 387T226 408T190 416Q162 416 146 399T121 350T103 277H83Z" />
<glyph unicode="&#xa0;" horiz-adv-x="250" />
<glyph unicode="&#xa1;" horiz-adv-x="297" d="M174 339L94 -180H17L160 339H174ZM202 542Q217 542 226 534T235 505Q235 477 222 454T181 430Q166 430 157 438T148 467Q148 486 154 503T171 531T202 542Z" />
<glyph unicode="&#xa2;" horiz-adv-x="537" d="M225 0L377 714H387L235 0H225ZM260 85Q207 85 166 108T102 177T79 292Q79 338 90 387T124 481T181 563T259 620T359 641Q405 641 436 626T482 589T497 541Q497 525 490 514T468 496T434 489Q435 496 435 504T436
521Q436 576 416 603T353 631Q316 631 284 610T227 554T185 474T158 381T149 288Q149 196 179 146T266 96Q304 96 330 110T375 149T406 207Q411 205 415 200T419 187Q419 165 401 142T348 102T260 85Z" />
<glyph unicode="&#xa3;" horiz-adv-x="537" d="M326 -10Q297 -10 276 -3T235 14T196 31T149 38Q115 38 86 29T30 7L13 -1L8 9L44 28Q75 46 100 69T143 122T170 187T179 266Q179 280 177 294T173 324T168 352H67L68 362H165Q158 398 153 429T147 490Q147 562 175
614T256 695T382 724Q435 724 470 709T524 668T542 616Q542 588 527 574T484 560Q485 609 474 643T439 696T377 714Q296 714 252 658T208 500Q208 467 212 435T226 362H389L388 352H228Q231 342 233 329T236 300T237 271Q237 223 218 183T168 111T98 51L100 48Q120
59 135 66T164 78T196 83Q220 83 242 75T284 57T326 39T368 31Q400 31 423 46T468 85L476 77Q459 57 435 37T382 4T326 -10Z" />
<glyph unicode="&#xa4;" horiz-adv-x="537" d="M107 147L75 179L144 248Q126 271 116 299T106 359Q106 390 116 418T144 470L75 538L107 570L175 502Q199 520 227 530T288 540Q318 540 346 530T398 502L467 571L499 538L430 470Q449 447 458 419T468 359Q468 327
459 299T430 247L499 179L467 147L398 215Q376 198 348 188T288 178Q256 178 228 188T176 216L107 147ZM287 220Q326 220 357 239T406 289T425 358Q425 397 407 428T357 478T287 497Q249 497 218 479T168 429T150 358Q150 321 168 290T217 239T287 220Z" />
<glyph unicode="&#xa5;" horiz-adv-x="537" d="M78 0L80 10H112Q145 10 166 21T195 71L223 204H79L81 214H225L248 321H104L106 331H247L149 657Q142 684 133 694T102 704H94L96 714H291L288 704H273Q245 704 231 699T216 676Q216 667 218 654T226 623L268 476Q275
454 282 429T296 379T308 333Q326 360 348 391T385 444L494 604Q513 631 524 649T535 680Q535 693 523 698T480 704H449L451 714H626L624 704H614Q598 704 587 700T562 680T527 632L318 331H461L459 321H314L291 214H436L434 204H289L262 74Q261 67 260 59T258
46Q258 24 274 17T318 10H350L348 0H78Z" />
<glyph unicode="&#xa6;" horiz-adv-x="559" d="M268 360V760H288V360H268ZM268 -240V160H288V-240H268Z" />
<glyph unicode="&#xa7;" horiz-adv-x="544" d="M194 -115Q140 -115 102 -98T43 -52T23 14Q23 33 30 43T48 59T69 64Q69 16 81 -22T122 -82T198 -105Q247 -105 281 -87T333 -35T351 41Q351 68 342 91T303 142T212 203Q170 229 146 254T111 306T100 364Q100 408
126 441T193 495Q181 513 172 538T162 594Q162 643 185 679T253 737T355 758Q407 758 441 742T492 702T509 650Q509 621 495 610T453 598Q453 643 445 676T414 729T346 748Q307 748 278 732T233 685T216 614Q216 580 227 557T266 513T339 465Q389 436 416 411T455
359T467 301Q467 273 456 249T424 202T374 160Q388 142 396 121T404 69Q404 17 380 -25T309 -91T194 -115ZM368 169Q392 194 402 220T413 276Q413 297 405 317T373 359T302 410Q281 422 262 434T228 459T199 487Q174 467 163 444T151 388Q151 364 160 343T193 299T259
253Q293 232 321 211T368 169Z" />
<glyph unicode="&#xa8;" horiz-adv-x="577" d="M462 644Q449 644 441 652T432 680Q432 696 436 710T449 733T471 742Q485 742 493 734T502 705Q502 677 491 661T462 644ZM285 644Q272 644 264 652T255 680Q255 696 259 710T272 733T294 742Q308 742 316 734T325
705Q325 677 314 661T285 644Z" />
<glyph unicode="&#xa9;" horiz-adv-x="845" d="M441 -10Q361 -10 294 17T178 93T101 210T74 358Q74 438 101 505T177 621T293 697T441 725Q521 725 588 698T705 622T782 505T809 357Q809 277 782 210T706 94T589 17T441 -10ZM444 118Q381 118 335 145T263 227T237
360Q237 439 263 492T337 572T452 599Q495 599 528 588T580 557T600 514Q600 497 587 487T550 475Q550 511 538 536T501 574T440 588Q394 588 362 565T312 491T295 361Q295 279 315 228T371 152T452 128Q504 128 538 155T585 232Q593 229 596 222T600 206Q600 187
581 167T527 132T444 118ZM443 0Q520 0 584 26T696 101T770 215T797 358Q797 435 771 500T697 614T584 688T441 715Q364 715 299 689T187 614T113 501T86 358Q86 279 113 213T189 100T303 26T443 0Z" />
<glyph unicode="&#xaa;" horiz-adv-x="376" d="M167 384Q124 384 104 415T84 492Q84 528 97 568T136 642T198 697T278 718Q302 718 319 713T351 697L378 711H395L342 523Q338 506 334 485T329 450Q329 427 336 417T356 407Q369 407 380 413T402 429L408 421Q395
408 376 397T334 385Q310 385 297 399T283 437Q283 445 284 457T287 482H285Q264 439 235 412T167 384ZM194 406Q212 406 230 422T262 463T285 516L334 690Q327 699 313 703T282 708Q250 708 225 688T181 635T154 565T144 494Q144 447 158 427T194 406Z" />
<glyph unicode="&#xab;" horiz-adv-x="490" d="M361 85L232 262L234 270L439 455H455L296 263L375 85H361ZM446 85L317 262L319 270L524 455H540L381 263L460 85H446Z" />
<glyph unicode="&#xac;" horiz-adv-x="559" d="M468 120V355H63V375H488V120H468Z" />
<glyph unicode="&#xad;" horiz-adv-x="310" d="M24 266L28 286H288L284 266H24Z" />
<glyph unicode="&#xae;" horiz-adv-x="845" d="M441 -10Q361 -10 294 17T178 93T101 210T74 358Q74 438 101 505T177 621T293 697T441 725Q521 725 588 698T705 622T782 505T809 357Q809 277 782 210T706 94T589 17T441 -10ZM443 0Q520 0 584 26T696 101T770 215T797
358Q797 435 771 500T697 614T584 688T441 715Q364 715 299 689T187 614T113 501T86 358Q86 279 113 213T189 100T303 26T443 0ZM262 141V151H275Q295 151 309 156T324 182V528Q324 551 310 557T275 563H262V573H428Q514 573 556 543T598 455Q598 407 570 383T503
347L600 183Q611 164 622 158T651 151V141H562L447 342H379V182Q379 162 394 157T428 151H442V141H262ZM436 352Q492 352 516 377T541 456Q541 515 513 539T421 563H379V352H436Z" />
<glyph unicode="&#xaf;" horiz-adv-x="459" d="M102 773L107 793H576L571 773H102Z" />
<glyph unicode="&#xb0;" horiz-adv-x="400" d="M264 421Q197 421 155 463T113 572Q113 639 155 681T264 724Q331 724 373 682T416 572Q416 505 374 463T264 421ZM266 441Q325 441 360 478T396 574Q396 632 360 668T266 704Q208 704 171 668T133 574Q133 516 170
479T266 441Z" />
<glyph unicode="&#xb1;" horiz-adv-x="559" d="M48 15V35H477V15H48ZM252 143V347H48V367H252V572H272V367H477V347H272V143H252Z" />
<glyph unicode="&#xb2;" horiz-adv-x="400" d="M80 386L85 411L232 532Q271 565 296 590T335 638T355 682T361 731Q361 752 355 771T334 802T294 814Q261 814 242 797T213 750T200 686Q178 686 166 696T154 725Q154 747 170 770T219 808T298 824Q357 824 389 798T421
727Q421 688 402 658T346 598T260 531L122 429H320Q341 429 353 433T372 448T384 476L389 494H399L375 386H80Z" />
<glyph unicode="&#xb3;" horiz-adv-x="400" d="M218 380Q159 380 126 401T92 458Q92 481 104 495T137 510Q132 455 151 423T219 390Q274 390 307 420T341 516Q341 553 318 580T236 607H203L206 617H242Q280 617 308 632T351 675T367 738Q367 771 351 792T300 814Q271
814 250 799T217 758T198 698Q179 698 166 704T153 731Q153 754 171 775T222 810T302 824Q365 824 397 798T430 732Q430 684 392 654T299 614V611Q345 604 374 581T403 513Q403 472 380 442T315 396T218 380Z" />
<glyph unicode="&#xb4;" horiz-adv-x="211" d="M114 615Q131 637 148 662T182 715T212 766H276L274 757Q263 743 246 724T207 683T164 642T123 606H112L114 615Z" />
<glyph unicode="&#xb5;" horiz-adv-x="556" d="M42 -240Q18 -240 5 -225T-9 -175Q-9 -143 5 -87T40 48T84 227L153 536H217L149 234Q142 201 135 167T128 106Q128 58 145 31T198 3Q231 3 259 20T309 65T345 123T365 183L440 536H504L429 189Q423 157 419 126T415
75Q415 45 424 29T451 13Q463 13 475 18T498 30L503 20Q488 11 467 1T420 -10Q395 -10 380 4T358 46T353 109H351Q318 52 279 21T188 -10Q163 -10 143 -4T107 16T83 50T72 103Q60 52 53 17T42 -43T37 -88Q37 -127 52 -150T103 -179Q100 -209 84 -224T42 -240Z"
/>
<glyph unicode="&#xb6;" horiz-adv-x="612" d="M184 -111V-101H204Q228 -101 245 -97T270 -80T279 -41V386H208Q150 386 117 413T69 485T55 582Q55 636 70 676T119 738T210 760H580V750H563Q537 750 520 745T494 726T485 682V-38Q485 -65 494 -79T520 -97T562
-101H580V-111H439V750H325V-111H184Z" />
<glyph unicode="&#xb7;" horiz-adv-x="238" d="M127 301Q112 301 103 309T94 338Q94 365 107 389T148 413Q163 413 172 405T181 376Q181 357 175 340T158 312T127 301Z" />
<glyph unicode="&#xb8;" horiz-adv-x="333" d="M128 -231Q107 -231 91 -228T58 -220L61 -210Q74 -214 88 -216T114 -219Q145 -219 164 -205T193 -168T203 -119Q203 -95 191 -80T146 -60L174 4H185L161 -49Q192 -53 213 -63T246 -89T258 -127Q258 -160 241 -183T195
-219T128 -231Z" />
<glyph unicode="&#xb9;" horiz-adv-x="400" d="M107 387L109 397H164Q180 397 193 403T211 432L284 780L283 781Q266 760 249 744T216 719T181 710Q168 710 161 718T153 742Q181 742 207 750T261 775T325 819H353L275 449Q273 438 272 429T273 413Q275 403 283
400T303 397H363L361 387H107Z" />
<glyph unicode="&#xba;" horiz-adv-x="366" d="M214 384Q155 384 121 416T86 508Q86 542 97 578T133 647T192 699T276 719Q311 719 340 706T386 666T404 596Q404 565 393 529T358 459T299 405T214 384ZM214 394Q249 394 273 414T312 467T333 535T340 603Q340 656
324 682T272 709Q238 709 214 689T174 638T153 570T146 502Q146 449 164 422T214 394Z" />
<glyph unicode="&#xbb;" horiz-adv-x="495" d="M206 85L363 277L285 455H299L427 278L426 270L221 85H206ZM286 85L443 277L365 455H379L507 278L506 270L301 85H286Z" />
<glyph unicode="&#xbc;" horiz-adv-x="962" d="M342 541L344 551H399Q415 551 428 557T446 586L519 934L518 935Q501 914 484 898T451 873T416 864Q403 864 396 872T388 896Q416 896 442 904T496 929T560 973H588L510 603Q508 592 507 583T508 567Q510 557 518
554T538 551H598L596 541H342ZM260 0L769 714H780L271 0H260ZM653 0L654 10H682Q710 10 723 17T742 48L761 135H579L584 162L824 432H884L828 170H922L914 135H821L806 65Q804 54 803 47T802 34Q802 21 811 16T837 10H864L861 0H653ZM606 170H768L799 315Q803 331
807 348T815 382T823 415Q812 403 794 382T752 333L606 170Z" />
<glyph unicode="&#xbd;" horiz-adv-x="962" d="M342 541L344 551H399Q415 551 428 557T446 586L519 934L518 935Q501 914 484 898T451 873T416 864Q403 864 396 872T388 896Q416 896 442 904T496 929T560 973H588L510 603Q508 592 507 583T508 567Q510 557 518
554T538 551H598L596 541H342ZM240 0L749 714H760L251 0H240ZM569 -1L574 24L721 145Q760 178 785 203T824 251T844 295T850 344Q850 365 844 384T823 415T783 427Q750 427 731 410T702 363T689 299Q667 299 655 309T643 338Q643 360 659 383T708 421T787 437Q846
437 878 411T910 340Q910 301 891 271T835 211T749 144L611 42H809Q830 42 842 46T861 61T873 89L878 107H888L864 -1H569Z" />
<glyph unicode="&#xbe;" horiz-adv-x="962" d="M452 533Q393 533 360 554T326 611Q326 634 338 648T371 663Q366 608 385 576T453 543Q508 543 541 573T575 669Q575 706 552 733T470 760H437L440 770H476Q514 770 542 785T585 828T601 891Q601 924 585 945T534
967Q505 967 484 952T451 911T432 851Q413 851 400 857T387 884Q387 907 405 928T456 963T536 977Q599 977 631 951T664 885Q664 837 626 807T533 767V764Q579 757 608 734T637 666Q637 625 614 595T549 549T452 533ZM264 0L773 714H784L275 0H264ZM653 0L654 10H682Q710
10 723 17T742 48L761 135H579L584 162L824 432H884L828 170H922L914 135H821L806 65Q804 54 803 47T802 34Q802 21 811 16T837 10H864L861 0H653ZM606 170H768L799 315Q803 331 807 348T815 382T823 415Q812 403 794 382T752 333L606 170Z" />
<glyph unicode="&#xbf;" horiz-adv-x="472" d="M278 209Q227 201 187 179T120 124T78 50T64 -35Q64 -82 77 -113T114 -160T174 -176Q222 -176 250 -153T293 -90T312 -4Q336 -4 348 -15T360 -48Q360 -84 339 -115T275 -166T171 -186Q92 -186 45 -146T-2 -35Q-2
27 28 77T113 161T241 212L280 343H293L278 209ZM319 546Q334 546 342 538T351 509Q351 481 338 458T298 434Q283 434 274 442T265 471Q265 490 270 507T288 535T319 546Z" />
<glyph unicode="&#xc0;" horiz-adv-x="676" d="M-62 0L-60 10H-34Q-11 10 2 15T30 39T67 98L416 714H455L552 79Q556 49 562 34T579 15T608 10H621L619 0H389L391 10H421Q458 10 472 21T487 56Q487 65 486 77T484 96L430 473Q426 503 421 542T412 618T405 679Q396
662 385 641T360 597T332 547T300 491L80 102Q70 84 64 68T57 40Q57 22 69 16T110 10H168L166 0H-62ZM162 259L167 269H494L495 259H162ZM482 784Q467 802 452 822T421 862T393 900T371 935L372 944H435Q441 923 450 897T470 844T492 793L491 784H482Z" />
<glyph unicode="&#xc1;" horiz-adv-x="676" d="M-62 0L-60 10H-34Q-11 10 2 15T30 39T67 98L416 714H455L552 79Q556 49 562 34T579 15T608 10H621L619 0H389L391 10H421Q458 10 472 21T487 56Q487 65 486 77T484 96L430 473Q426 503 421 542T412 618T405 679Q396
662 385 641T360 597T332 547T300 491L80 102Q70 84 64 68T57 40Q57 22 69 16T110 10H168L166 0H-62ZM162 259L167 269H494L495 259H162ZM657 783Q674 805 691 830T725 883T755 934H819L817 925Q806 911 789 892T750 851T707 810T666 774H655L657 783Z" />
<glyph unicode="&#xc2;" horiz-adv-x="676" d="M-62 0L-60 10H-34Q-11 10 2 15T30 39T67 98L416 714H455L552 79Q556 49 562 34T579 15T608 10H621L619 0H389L391 10H421Q458 10 472 21T487 56Q487 65 486 77T484 96L430 473Q426 503 421 542T412 618T405 679Q396
662 385 641T360 597T332 547T300 491L80 102Q70 84 64 68T57 40Q57 22 69 16T110 10H168L166 0H-62ZM162 259L167 269H494L495 259H162ZM309 793Q330 813 356 839T406 893T445 944H499Q504 921 516 894T543 840T570 793L569 784H560Q530 811 507 839T465 900Q444
879 420 859T371 821T317 784H308L309 793Z" />
<glyph unicode="&#xc3;" horiz-adv-x="676" d="M-62 0L-60 10H-34Q-11 10 2 15T30 39T67 98L416 714H455L552 79Q556 49 562 34T579 15T608 10H621L619 0H389L391 10H421Q458 10 472 21T487 56Q487 65 486 77T484 96L430 473Q426 503 421 542T412 618T405 679Q396
662 385 641T360 597T332 547T300 491L80 102Q70 84 64 68T57 40Q57 22 69 16T110 10H168L166 0H-62ZM162 259L167 269H494L495 259H162ZM513 788Q486 788 468 797T433 817T398 838T352 847Q329 847 316 839T295 819T280 792H270Q278 818 292 841T330 880T386 895Q412
895 430 886T464 865T499 844T545 835Q576 835 590 851T614 888H624Q616 863 602 840T567 803T513 788Z" />
<glyph unicode="&#xc4;" horiz-adv-x="676" d="M-62 0L-60 10H-34Q-11 10 2 15T30 39T67 98L416 714H455L552 79Q556 49 562 34T579 15T608 10H621L619 0H389L391 10H421Q458 10 472 21T487 56Q487 65 486 77T484 96L430 473Q426 503 421 542T412 618T405 679Q396
662 385 641T360 597T332 547T300 491L80 102Q70 84 64 68T57 40Q57 22 69 16T110 10H168L166 0H-62ZM162 259L167 269H494L495 259H162ZM538 822Q525 822 517 830T508 858Q508 874 512 888T525 911T547 920Q561 920 569 912T578 883Q578 855 567 839T538 822ZM361
822Q348 822 340 830T331 858Q331 874 335 888T348 911T370 920Q384 920 392 912T401 883Q401 855 390 839T361 822Z" />
<glyph unicode="&#xc5;" horiz-adv-x="677" d="M-58 0L-56 10H-30Q-8 10 6 15T34 39T70 98L408 692L423 689H443L462 692L555 79Q560 49 566 34T583 15T612 10H625L623 0H392L394 10H424Q461 10 476 21T491 56Q491 65 490 77T487 96L434 473Q430 503 425 542T415
618T409 679Q400 662 389 641T364 597T335 547T304 491L84 102Q74 84 67 68T60 40Q60 22 72 16T114 10H172L170 0H-58ZM166 259L171 269H498L499 259H166ZM447 684Q399 684 366 711T332 790Q332 841 365 868T447 895Q496 895 529 868T562 790Q562 738 529 711T447
684ZM447 694Q492 694 521 717T550 790Q550 838 521 861T447 885Q402 885 373 862T344 790Q344 741 373 718T447 694Z" />
<glyph unicode="&#xc6;" horiz-adv-x="920" d="M-62 0L-60 10H-41Q-22 10 -9 14T20 36T61 88L505 704H375L377 714H928L897 545H887Q889 553 890 568T894 599T895 622Q895 645 890 663T867 693T811 704H609L540 380H795L793 370H538L462 10H693Q735 10 760 22T800
59T828 123L842 169H852L809 0H295L298 10H320Q345 10 362 13T390 29T406 65L448 265H202L76 89Q65 74 59 62T52 38Q52 24 65 17T112 10H171L169 0H-62ZM209 275H450L541 704H516Q498 677 471 639T414 559T359 482L209 275Z" />
<glyph unicode="&#xc7;" horiz-adv-x="610" d="M323 -10Q241 -10 183 23T93 116T61 257Q61 328 78 396T129 524T209 628T315 698T445 724Q533 724 580 691T627 600Q627 575 610 560T565 544Q565 577 561 607T543 662T506 700T442 714Q384 714 336 686T250 611T187
503T147 377T133 248Q133 173 156 117T224 31T329 0Q378 0 412 17T469 64T507 133Q514 131 517 125T521 109Q521 84 500 56T436 9T323 -10ZM247 21Q226 21 210 24T177 32L180 42Q193 38 207 36T233 33Q264 33 283 47T312 84T322 133Q322 157 310 172T265 192L293
256H304L280 203Q311 199 332 189T365 163T377 125Q377 92 360 69T314 33T247 21Z" />
<glyph unicode="&#xc8;" horiz-adv-x="610" d="M-14 0L-11 10H16Q51 10 69 20T95 62L220 652Q222 656 222 660T223 669Q223 691 208 697T169 704H135L137 714H619L588 545H578Q580 558 581 571T584 598T585 622Q585 647 581 665T561 693T515 704H299L231 380H480L478
370H228L152 10H396Q425 10 444 16T476 36T498 69T516 117L532 169H542L500 0H-14ZM451 771Q436 789 421 809T390 849T362 887T340 922L341 931H404Q410 910 419 884T439 831T461 780L460 771H451Z" />
<glyph unicode="&#xc9;" horiz-adv-x="610" d="M-14 0L-11 10H16Q51 10 69 20T95 62L220 652Q222 656 222 660T223 669Q223 691 208 697T169 704H135L137 714H619L588 545H578Q580 558 581 571T584 598T585 622Q585 647 581 665T561 693T515 704H299L231 380H480L478
370H228L152 10H396Q425 10 444 16T476 36T498 69T516 117L532 169H542L500 0H-14ZM409 780Q426 802 443 827T477 880T507 931H571L569 922Q558 908 541 889T502 848T459 807T418 771H407L409 780Z" />
<glyph unicode="&#xca;" horiz-adv-x="610" d="M-14 0L-11 10H16Q51 10 69 20T95 62L220 652Q222 656 222 660T223 669Q223 691 208 697T169 704H135L137 714H619L588 545H578Q580 558 581 571T584 598T585 622Q585 647 581 665T561 693T515 704H299L231 380H480L478
370H228L152 10H396Q425 10 444 16T476 36T498 69T516 117L532 169H542L500 0H-14ZM303 780Q324 800 350 826T400 880T439 931H493Q498 908 510 881T537 827T564 780L563 771H554Q524 798 501 826T459 887Q438 866 414 846T365 808T311 771H302L303 780Z" />
<glyph unicode="&#xcb;" horiz-adv-x="610" d="M-14 0L-11 10H16Q51 10 69 20T95 62L220 652Q222 656 222 660T223 669Q223 691 208 697T169 704H135L137 714H619L588 545H578Q580 558 581 571T584 598T585 622Q585 647 581 665T561 693T515 704H299L231 380H480L478
370H228L152 10H396Q425 10 444 16T476 36T498 69T516 117L532 169H542L500 0H-14ZM525 809Q512 809 504 817T495 845Q495 861 499 875T512 898T534 907Q548 907 556 899T565 870Q565 842 554 826T525 809ZM348 809Q335 809 327 817T318 845Q318 861 322 875T335
898T357 907Q371 907 379 899T388 870Q388 842 377 826T348 809Z" />
<glyph unicode="&#xcc;" horiz-adv-x="329" d="M-14 0L-13 10H14Q49 10 69 22T98 74L219 642Q221 649 222 657T223 670Q223 690 208 697T162 704H135L137 714H398L396 704H370Q334 704 314 692T285 637L166 74Q164 67 163 59T161 44Q161 23 177 17T222 10H249L247
0H-14ZM305 771Q290 789 275 809T244 849T216 887T194 922L195 931H258Q264 910 273 884T293 831T315 780L314 771H305Z" />
<glyph unicode="&#xcd;" horiz-adv-x="329" d="M-14 0L-13 10H14Q49 10 69 22T98 74L219 642Q221 649 222 657T223 670Q223 690 208 697T162 704H135L137 714H398L396 704H370Q334 704 314 692T285 637L166 74Q164 67 163 59T161 44Q161 23 177 17T222 10H249L247
0H-14ZM238 780Q255 802 272 827T306 880T336 931H400L398 922Q387 908 370 889T331 848T288 807T247 771H236L238 780Z" />
<glyph unicode="&#xce;" horiz-adv-x="329" d="M-14 0L-13 10H14Q49 10 69 22T98 74L219 642Q221 649 222 657T223 670Q223 690 208 697T162 704H135L137 714H398L396 704H370Q334 704 314 692T285 637L166 74Q164 67 163 59T161 44Q161 23 177 17T222 10H249L247
0H-14ZM144 780Q165 800 191 826T241 880T280 931H334Q339 908 351 881T378 827T405 780L404 771H395Q365 798 342 826T300 887Q279 866 255 846T206 808T152 771H143L144 780Z" />
<glyph unicode="&#xcf;" horiz-adv-x="329" d="M-14 0L-13 10H14Q49 10 69 22T98 74L219 642Q221 649 222 657T223 670Q223 690 208 697T162 704H135L137 714H398L396 704H370Q334 704 314 692T285 637L166 74Q164 67 163 59T161 44Q161 23 177 17T222 10H249L247
0H-14ZM379 822Q366 822 358 830T349 858Q349 874 353 888T366 911T388 920Q402 920 410 912T419 883Q419 855 408 839T379 822ZM202 822Q189 822 181 830T172 858Q172 874 176 888T189 911T211 920Q225 920 233 912T242 883Q242 855 231 839T202 822Z" />
<glyph unicode="&#xd0;" horiz-adv-x="700" d="M52 373L54 383H419L417 373H52ZM-14 0L-11 10H15Q50 10 70 20T98 70L221 653Q223 658 223 663T224 673Q224 693 208 698T169 704H135L137 714H390Q523 714 595 645T668 442Q668 371 652 305T604 184T525 87T417
23T280 0H-14ZM261 11Q323 11 375 31T468 90T537 183T581 303T596 448Q596 536 571 593T498 677T386 704H300L152 11H261Z" />
<glyph unicode="&#xd1;" horiz-adv-x="717" d="M-14 0L-12 10H15Q41 10 60 14T90 31T108 73L230 644Q232 652 233 660T234 673Q234 692 217 698T170 704H135L137 714H301L547 92L661 627Q665 639 666 650T667 668Q667 690 647 697T590 704H555L557 714H797L795
704H769Q742 704 723 699T691 677T671 625L538 0H515L246 671L119 77Q117 67 116 58T114 42Q114 23 133 17T188 10H228L226 0H-14ZM555 788Q528 788 510 797T475 817T440 838T394 847Q371 847 358 839T337 819T322 792H312Q320 818 334 841T372 880T428 895Q454
895 472 886T506 865T541 844T587 835Q618 835 632 851T656 888H666Q658 863 644 840T609 803T555 788Z" />
<glyph unicode="&#xd2;" horiz-adv-x="718" d="M313 -11Q242 -11 185 19T95 112T61 266Q61 324 76 387T123 510T200 618T308 696T446 725Q512 725 569 696T660 607T695 450Q695 402 685 350T653 246T601 148T527 66T431 10T313 -11ZM316 -1Q377 -1 426 27T512
104T573 214T610 339T622 464Q622 559 599 613T535 691T442 715Q381 715 332 687T246 610T184 501T146 376T133 251Q133 154 157 99T224 22T316 -1ZM520 784Q505 802 490 822T459 862T431 900T409 935L410 944H473Q479 923 488 897T508 844T530 793L529 784H520Z"
/>
<glyph unicode="&#xd3;" horiz-adv-x="718" d="M313 -11Q242 -11 185 19T95 112T61 266Q61 324 76 387T123 510T200 618T308 696T446 725Q512 725 569 696T660 607T695 450Q695 402 685 350T653 246T601 148T527 66T431 10T313 -11ZM316 -1Q377 -1 426 27T512
104T573 214T610 339T622 464Q622 559 599 613T535 691T442 715Q381 715 332 687T246 610T184 501T146 376T133 251Q133 154 157 99T224 22T316 -1ZM695 783Q712 805 729 830T763 883T793 934H857L855 925Q844 911 827 892T788 851T745 810T704 774H693L695 783Z"
/>
<glyph unicode="&#xd4;" horiz-adv-x="718" d="M313 -11Q242 -11 185 19T95 112T61 266Q61 324 76 387T123 510T200 618T308 696T446 725Q512 725 569 696T660 607T695 450Q695 402 685 350T653 246T601 148T527 66T431 10T313 -11ZM316 -1Q377 -1 426 27T512
104T573 214T610 339T622 464Q622 559 599 613T535 691T442 715Q381 715 332 687T246 610T184 501T146 376T133 251Q133 154 157 99T224 22T316 -1ZM347 793Q368 813 394 839T444 893T483 944H537Q542 921 554 894T581 840T608 793L607 784H598Q568 811 545 839T503
900Q482 879 458 859T409 821T355 784H346L347 793Z" />
<glyph unicode="&#xd5;" horiz-adv-x="718" d="M313 -11Q242 -11 185 19T95 112T61 266Q61 324 76 387T123 510T200 618T308 696T446 725Q512 725 569 696T660 607T695 450Q695 402 685 350T653 246T601 148T527 66T431 10T313 -11ZM316 -1Q377 -1 426 27T512
104T573 214T610 339T622 464Q622 559 599 613T535 691T442 715Q381 715 332 687T246 610T184 501T146 376T133 251Q133 154 157 99T224 22T316 -1ZM551 788Q524 788 506 797T471 817T436 838T390 847Q367 847 354 839T333 819T318 792H308Q316 818 330 841T368
880T424 895Q450 895 468 886T502 865T537 844T583 835Q614 835 628 851T652 888H662Q654 863 640 840T605 803T551 788Z" />
<glyph unicode="&#xd6;" horiz-adv-x="718" d="M313 -11Q242 -11 185 19T95 112T61 266Q61 324 76 387T123 510T200 618T308 696T446 725Q512 725 569 696T660 607T695 450Q695 402 685 350T653 246T601 148T527 66T431 10T313 -11ZM316 -1Q377 -1 426 27T512
104T573 214T610 339T622 464Q622 559 599 613T535 691T442 715Q381 715 332 687T246 610T184 501T146 376T133 251Q133 154 157 99T224 22T316 -1ZM576 822Q563 822 555 830T546 858Q546 874 550 888T563 911T585 920Q599 920 607 912T616 883Q616 855 605 839T576
822ZM399 822Q386 822 378 830T369 858Q369 874 373 888T386 911T408 920Q422 920 430 912T439 883Q439 855 428 839T399 822Z" />
<glyph unicode="&#xd7;" horiz-adv-x="559" d="M101 145L87 159L285 357L87 555L101 569L299 371L496 569L510 555L312 357L510 159L496 145L299 343L101 145Z" />
<glyph unicode="&#xd8;" horiz-adv-x="718" d="M82 -40L655 755H668L94 -40H82ZM313 -11Q242 -11 185 19T95 112T61 266Q61 324 76 387T123 510T200 618T308 696T446 725Q512 725 569 696T660 607T695 450Q695 402 685 350T653 246T601 148T527 66T431 10T313
-11ZM316 -1Q377 -1 426 27T512 104T573 214T610 339T622 464Q622 559 599 613T535 691T442 715Q381 715 332 687T246 610T184 501T146 376T133 251Q133 154 157 99T224 22T316 -1Z" />
<glyph unicode="&#xd9;" horiz-adv-x="709" d="M324 -10Q224 -10 167 35T109 162Q109 178 112 206T122 259L200 627Q203 638 204 649T206 668Q206 690 191 697T146 704H119L121 714H384L382 704H355Q331 704 315 699T287 677T267 625L188 257Q184 236 181 217T177
182T175 152Q175 81 216 42T327 2Q409 2 458 30T533 104T572 207L662 627Q665 637 666 646T667 662Q667 690 649 697T601 704H577L579 714H787L786 704H759Q736 704 719 699T691 678T671 625L582 204Q568 138 538 90T456 16T324 -10ZM519 784Q504 802 489 822T458
862T430 900T408 935L409 944H472Q478 923 487 897T507 844T529 793L528 784H519Z" />
<glyph unicode="&#xda;" horiz-adv-x="709" d="M324 -10Q224 -10 167 35T109 162Q109 178 112 206T122 259L200 627Q203 638 204 649T206 668Q206 690 191 697T146 704H119L121 714H384L382 704H355Q331 704 315 699T287 677T267 625L188 257Q184 236 181 217T177
182T175 152Q175 81 216 42T327 2Q409 2 458 30T533 104T572 207L662 627Q665 637 666 646T667 662Q667 690 649 697T601 704H577L579 714H787L786 704H759Q736 704 719 699T691 678T671 625L582 204Q568 138 538 90T456 16T324 -10ZM694 783Q711 805 728 830T762
883T792 934H856L854 925Q843 911 826 892T787 851T744 810T703 774H692L694 783Z" />
<glyph unicode="&#xdb;" horiz-adv-x="709" d="M324 -10Q224 -10 167 35T109 162Q109 178 112 206T122 259L200 627Q203 638 204 649T206 668Q206 690 191 697T146 704H119L121 714H384L382 704H355Q331 704 315 699T287 677T267 625L188 257Q184 236 181 217T177
182T175 152Q175 81 216 42T327 2Q409 2 458 30T533 104T572 207L662 627Q665 637 666 646T667 662Q667 690 649 697T601 704H577L579 714H787L786 704H759Q736 704 719 699T691 678T671 625L582 204Q568 138 538 90T456 16T324 -10ZM346 793Q367 813 393 839T443
893T482 944H536Q541 921 553 894T580 840T607 793L606 784H597Q567 811 544 839T502 900Q481 879 457 859T408 821T354 784H345L346 793Z" />
<glyph unicode="&#xdc;" horiz-adv-x="709" d="M324 -10Q224 -10 167 35T109 162Q109 178 112 206T122 259L200 627Q203 638 204 649T206 668Q206 690 191 697T146 704H119L121 714H384L382 704H355Q331 704 315 699T287 677T267 625L188 257Q184 236 181 217T177
182T175 152Q175 81 216 42T327 2Q409 2 458 30T533 104T572 207L662 627Q665 637 666 646T667 662Q667 690 649 697T601 704H577L579 714H787L786 704H759Q736 704 719 699T691 678T671 625L582 204Q568 138 538 90T456 16T324 -10ZM575 822Q562 822 554 830T545
858Q545 874 549 888T562 911T584 920Q598 920 606 912T615 883Q615 855 604 839T575 822ZM398 822Q385 822 377 830T368 858Q368 874 372 888T385 911T407 920Q421 920 429 912T438 883Q438 855 427 839T398 822Z" />
<glyph unicode="&#xdd;" horiz-adv-x="585" d="M104 0L106 10H138Q173 10 192 21T221 72L274 319L155 657Q145 685 136 694T99 704H86L88 714H326L324 704H264Q244 704 235 699T225 681Q225 674 226 667T229 652T235 634L296 449Q303 430 310 408T324 365T337
326Q352 347 369 370T407 420L557 622Q572 641 579 654T587 679Q587 692 577 698T541 704H482L484 714H687L685 704H663Q649 704 638 698T614 678T583 639L342 317L289 70Q288 64 287 57T285 44Q285 24 301 17T346 10H378L376 0H104ZM623 783Q640 805 657 830T691
883T721 934H785L783 925Q772 911 755 892T716 851T673 810T632 774H621L623 783Z" />
<glyph unicode="&#xde;" horiz-adv-x="584" d="M-20 0L-18 10H9Q42 10 63 22T93 76L210 627Q213 639 214 650T216 668Q216 691 201 697T156 704H129L131 714H398L396 704H364Q332 704 311 692T281 641L270 591H341Q441 591 499 545T557 404Q557 366 544 324T498
244T405 183T250 159H178L161 74Q159 66 158 57T156 42Q156 24 172 17T217 10H249L247 0H-20ZM240 169Q307 169 354 189T430 242T473 317T486 404Q486 496 447 538T332 581H267L180 169H240Z" />
<glyph unicode="&#xdf;" horiz-adv-x="587" d="M-76 -240Q-89 -240 -103 -238T-130 -232L-127 -222Q-118 -224 -106 -226T-83 -229Q-47 -229 -24 -208T17 -139T49 -16L164 526H85L87 536H166L174 574Q186 630 209 666T264 723T331 752T403 761Q489 761 527 720T566
610Q566 592 566 574T559 529H499Q440 529 406 513T358 469T343 408Q343 387 350 371T375 338T424 299Q457 277 479 254T512 205T523 146Q523 97 503 62T444 9T350 -10Q305 -10 274 3T227 39T211 91Q212 116 225 129T260 143Q259 108 264 75T290 21T353 0Q406 0
435 32T464 125Q464 148 458 167T436 207T387 250Q358 271 335 291T299 336T286 391Q286 424 297 451T334 498T399 528T498 539Q503 561 505 583T508 620Q508 682 483 716T400 751Q355 751 323 732T271 676T240 591L113 -8Q100 -72 83 -116T43 -188T-9 -227T-76
-240Z" />
<glyph unicode="&#xe0;" horiz-adv-x="536" d="M155 -10Q113 -10 86 11T46 73T33 168Q33 215 45 267T81 368T139 458T219 522T319 546Q356 546 380 535T424 505L463 535H485L413 208Q410 193 406 170T399 122T396 83Q396 49 406 31T437 13Q457 13 475 22T515 50L520
42Q507 29 488 17T447 -2T403 -10Q369 -10 351 12T332 74Q332 92 335 112T342 156H339Q300 69 253 30T155 -10ZM178 9Q209 9 237 31T289 88T330 163T355 241L410 496Q398 516 374 525T324 535Q282 535 247 510T185 444T139 354T111 255T101 166Q101 107 111 73T138
24T178 9ZM375 606Q360 624 345 644T314 684T286 722T264 757L265 766H328Q334 745 343 719T363 666T385 615L384 606H375Z" />
<glyph unicode="&#xe1;" horiz-adv-x="536" d="M155 -10Q113 -10 86 11T46 73T33 168Q33 215 45 267T81 368T139 458T219 522T319 546Q356 546 380 535T424 505L463 535H485L413 208Q410 193 406 170T399 122T396 83Q396 49 406 31T437 13Q457 13 475 22T515 50L520
42Q507 29 488 17T447 -2T403 -10Q369 -10 351 12T332 74Q332 92 335 112T342 156H339Q300 69 253 30T155 -10ZM178 9Q209 9 237 31T289 88T330 163T355 241L410 496Q398 516 374 525T324 535Q282 535 247 510T185 444T139 354T111 255T101 166Q101 107 111 73T138
24T178 9ZM550 605Q567 627 584 652T618 705T648 756H712L710 747Q699 733 682 714T643 673T600 632T559 596H548L550 605Z" />
<glyph unicode="&#xe2;" horiz-adv-x="536" d="M155 -10Q113 -10 86 11T46 73T33 168Q33 215 45 267T81 368T139 458T219 522T319 546Q356 546 380 535T424 505L463 535H485L413 208Q410 193 406 170T399 122T396 83Q396 49 406 31T437 13Q457 13 475 22T515 50L520
42Q507 29 488 17T447 -2T403 -10Q369 -10 351 12T332 74Q332 92 335 112T342 156H339Q300 69 253 30T155 -10ZM178 9Q209 9 237 31T289 88T330 163T355 241L410 496Q398 516 374 525T324 535Q282 535 247 510T185 444T139 354T111 255T101 166Q101 107 111 73T138
24T178 9ZM202 615Q223 635 249 661T299 715T338 766H392Q397 743 409 716T436 662T463 615L462 606H453Q423 633 400 661T358 722Q337 701 313 681T264 643T210 606H201L202 615Z" />
<glyph unicode="&#xe3;" horiz-adv-x="536" d="M155 -10Q113 -10 86 11T46 73T33 168Q33 215 45 267T81 368T139 458T219 522T319 546Q356 546 380 535T424 505L463 535H485L413 208Q410 193 406 170T399 122T396 83Q396 49 406 31T437 13Q457 13 475 22T515 50L520
42Q507 29 488 17T447 -2T403 -10Q369 -10 351 12T332 74Q332 92 335 112T342 156H339Q300 69 253 30T155 -10ZM178 9Q209 9 237 31T289 88T330 163T355 241L410 496Q398 516 374 525T324 535Q282 535 247 510T185 444T139 354T111 255T101 166Q101 107 111 73T138
24T178 9ZM405 610Q378 610 360 619T325 639T290 660T244 669Q221 669 208 661T187 641T172 614H162Q170 640 184 663T222 702T278 717Q304 717 322 708T356 687T391 666T437 657Q468 657 482 673T506 710H516Q508 685 494 662T459 625T405 610Z" />
<glyph unicode="&#xe4;" horiz-adv-x="536" d="M155 -10Q113 -10 86 11T46 73T33 168Q33 215 45 267T81 368T139 458T219 522T319 546Q356 546 380 535T424 505L463 535H485L413 208Q410 193 406 170T399 122T396 83Q396 49 406 31T437 13Q457 13 475 22T515 50L520
42Q507 29 488 17T447 -2T403 -10Q369 -10 351 12T332 74Q332 92 335 112T342 156H339Q300 69 253 30T155 -10ZM178 9Q209 9 237 31T289 88T330 163T355 241L410 496Q398 516 374 525T324 535Q282 535 247 510T185 444T139 354T111 255T101 166Q101 107 111 73T138
24T178 9ZM431 644Q418 644 410 652T401 680Q401 696 405 710T418 733T440 742Q454 742 462 734T471 705Q471 677 460 661T431 644ZM254 644Q241 644 233 652T224 680Q224 696 228 710T241 733T263 742Q277 742 285 734T294 705Q294 677 283 661T254 644Z" />
<glyph unicode="&#xe5;" horiz-adv-x="536" d="M155 -10Q113 -10 86 11T46 73T33 168Q33 215 45 267T81 368T139 458T219 522T319 546Q356 546 380 535T424 505L463 535H485L413 208Q410 193 406 170T399 122T396 83Q396 49 406 31T437 13Q457 13 475 22T515 50L520
42Q507 29 488 17T447 -2T403 -10Q369 -10 351 12T332 74Q332 92 335 112T342 156H339Q300 69 253 30T155 -10ZM178 9Q209 9 237 31T289 88T330 163T355 241L410 496Q398 516 374 525T324 535Q282 535 247 510T185 444T139 354T111 255T101 166Q101 107 111 73T138
24T178 9ZM358 605Q310 605 277 632T244 710Q244 762 277 789T358 816Q407 816 440 789T473 710Q473 659 440 632T358 605ZM358 615Q403 615 432 638T461 710Q461 759 432 782T358 806Q314 806 285 783T256 710Q256 661 285 638T358 615Z" />
<glyph unicode="&#xe6;" horiz-adv-x="773" d="M186 -10Q143 -10 110 12T59 78T41 191Q41 232 51 280T82 375T137 460T215 522T319 546Q358 546 392 533T464 478Q494 508 534 527T624 546Q681 546 713 517T746 434Q746 383 711 341T611 274T456 249H425Q424 236
423 220T421 190Q421 101 448 51T536 0Q588 0 622 31T675 114Q680 111 683 106T686 93Q686 72 670 48T619 7T533 -10Q486 -10 451 5T392 54T357 143H355Q326 66 286 28T186 -10ZM210 5Q252 5 288 44T354 166Q354 174 354 183T354 201Q354 256 368 307T405 401T456
472Q426 507 396 519T334 531Q288 531 252 507T189 444T145 358T118 265T109 183Q109 91 135 48T210 5ZM439 259Q518 259 571 282T651 348T678 444Q678 493 661 514T610 536Q575 536 545 513T490 449T450 360T426 259H439Z" />
<glyph unicode="&#xe7;" horiz-adv-x="456" d="M219 -10Q166 -10 126 13T62 81T39 197Q39 243 50 292T84 386T140 468T218 525T318 546Q365 546 396 531T442 494T457 445Q457 430 450 419T428 401T394 394Q395 400 395 408T396 425Q396 481 376 508T313 536Q276
536 244 515T187 459T145 379T118 286T108 193Q108 100 139 51T226 1Q263 1 289 15T334 54T365 112Q371 110 375 105T379 92Q379 70 361 46T308 6T219 -10ZM168 20Q147 20 131 23T98 31L101 41Q114 37 128 35T154 32Q185 32 204 46T233 83T243 132Q243 156 231
171T186 191L214 255H225L201 202Q232 198 253 188T286 162T298 124Q298 91 281 68T235 32T168 20Z" />
<glyph unicode="&#xe8;" horiz-adv-x="449" d="M217 -10Q168 -10 127 13T62 81T38 194Q38 239 49 288T83 383T139 466T215 524T312 546Q371 546 403 516T435 433Q435 379 398 338T297 272T153 248H112Q111 242 110 232T109 210T108 190Q108 131 122 88T161 23T221
0Q279 0 312 32T362 114Q368 112 372 106T376 91Q376 71 358 47T304 7T217 -10ZM149 258Q198 258 238 270T307 306T351 363T367 438Q367 488 351 511T300 535Q264 535 235 513T182 451T141 361T114 258H149ZM356 606Q341 624 326 644T295 684T267 722T245 757L246
766H309Q315 745 324 719T344 666T366 615L365 606H356Z" />
<glyph unicode="&#xe9;" horiz-adv-x="449" d="M217 -10Q168 -10 127 13T62 81T38 194Q38 239 49 288T83 383T139 466T215 524T312 546Q371 546 403 516T435 433Q435 379 398 338T297 272T153 248H112Q111 242 110 232T109 210T108 190Q108 131 122 88T161 23T221
0Q279 0 312 32T362 114Q368 112 372 106T376 91Q376 71 358 47T304 7T217 -10ZM149 258Q198 258 238 270T307 306T351 363T367 438Q367 488 351 511T300 535Q264 535 235 513T182 451T141 361T114 258H149ZM531 605Q548 627 565 652T599 705T629 756H693L691 747Q680
733 663 714T624 673T581 632T540 596H529L531 605Z" />
<glyph unicode="&#xea;" horiz-adv-x="449" d="M217 -10Q168 -10 127 13T62 81T38 194Q38 239 49 288T83 383T139 466T215 524T312 546Q371 546 403 516T435 433Q435 379 398 338T297 272T153 248H112Q111 242 110 232T109 210T108 190Q108 131 122 88T161 23T221
0Q279 0 312 32T362 114Q368 112 372 106T376 91Q376 71 358 47T304 7T217 -10ZM149 258Q198 258 238 270T307 306T351 363T367 438Q367 488 351 511T300 535Q264 535 235 513T182 451T141 361T114 258H149ZM183 615Q204 635 230 661T280 715T319 766H373Q378 743
390 716T417 662T444 615L443 606H434Q404 633 381 661T339 722Q318 701 294 681T245 643T191 606H182L183 615Z" />
<glyph unicode="&#xeb;" horiz-adv-x="449" d="M217 -10Q168 -10 127 13T62 81T38 194Q38 239 49 288T83 383T139 466T215 524T312 546Q371 546 403 516T435 433Q435 379 398 338T297 272T153 248H112Q111 242 110 232T109 210T108 190Q108 131 122 88T161 23T221
0Q279 0 312 32T362 114Q368 112 372 106T376 91Q376 71 358 47T304 7T217 -10ZM149 258Q198 258 238 270T307 306T351 363T367 438Q367 488 351 511T300 535Q264 535 235 513T182 451T141 361T114 258H149ZM412 644Q399 644 391 652T382 680Q382 696 386 710T399
733T421 742Q435 742 443 734T452 705Q452 677 441 661T412 644ZM235 644Q222 644 214 652T205 680Q205 696 209 710T222 733T244 742Q258 742 266 734T275 705Q275 677 264 661T235 644Z" />
<glyph unicode="&#xec;" horiz-adv-x="272" d="M148 -10Q110 -10 93 17T75 84Q75 104 78 127T85 173T93 214L145 468Q146 475 146 480T147 491Q147 512 133 519T85 526H69L71 536H223L148 175Q146 163 143 147T139 115T137 87Q137 50 148 34T178 17Q201 17 218
26T255 50L261 42Q239 23 210 7T148 -10ZM240 606Q225 624 210 644T179 684T151 722T129 757L130 766H193Q199 745 208 719T228 666T250 615L249 606H240Z" />
<glyph unicode="&#xed;" horiz-adv-x="272" d="M148 -10Q110 -10 93 17T75 84Q75 104 78 127T85 173T93 214L145 468Q146 475 146 480T147 491Q147 512 133 519T85 526H69L71 536H223L148 175Q146 163 143 147T139 115T137 87Q137 50 148 34T178 17Q201 17 218
26T255 50L261 42Q239 23 210 7T148 -10ZM415 605Q432 627 449 652T483 705T513 756H577L575 747Q564 733 547 714T508 673T465 632T424 596H413L415 605Z" />
<glyph unicode="&#xee;" horiz-adv-x="272" d="M148 -10Q110 -10 93 17T75 84Q75 104 78 127T85 173T93 214L145 468Q146 475 146 480T147 491Q147 512 133 519T85 526H69L71 536H223L148 175Q146 163 143 147T139 115T137 87Q137 50 148 34T178 17Q201 17 218
26T255 50L261 42Q239 23 210 7T148 -10ZM66 615Q87 635 113 661T163 715T202 766H256Q261 743 273 716T300 662T327 615L326 606H317Q287 633 264 661T222 722Q201 701 177 681T128 643T74 606H65L66 615Z" />
<glyph unicode="&#xef;" horiz-adv-x="272" d="M148 -10Q110 -10 93 17T75 84Q75 104 78 127T85 173T93 214L145 468Q146 475 146 480T147 491Q147 512 133 519T85 526H69L71 536H223L148 175Q146 163 143 147T139 115T137 87Q137 50 148 34T178 17Q201 17 218
26T255 50L261 42Q239 23 210 7T148 -10ZM295 644Q282 644 274 652T265 680Q265 696 269 710T282 733T304 742Q318 742 326 734T335 705Q335 677 324 661T295 644ZM118 644Q105 644 97 652T88 680Q88 696 92 710T105 733T127 742Q141 742 149 734T158 705Q158 677
147 661T118 644Z" />
<glyph unicode="&#xf0;" horiz-adv-x="550" d="M226 -10Q172 -9 131 12T67 76T44 180Q44 219 54 263T85 350T138 427T215 481T317 502Q342 502 364 496T405 476T435 434Q431 487 415 536T371 627T306 701T224 748L228 757Q297 738 348 700T434 607T485 488T502
350Q501 278 484 213T433 98T347 19T226 -10ZM225 0Q268 0 301 19T360 72T400 146T424 232T432 319Q432 408 402 450T318 492Q273 492 239 471T181 414T142 336T121 250T114 169Q114 109 128 72T167 18T225 0ZM217 564L220 577L518 744L516 732L217 564Z" />
<glyph unicode="&#xf1;" horiz-adv-x="561" d="M439 -10Q400 -10 380 14T360 83Q360 109 365 141T378 214L402 321Q405 332 409 352T418 396T422 439Q422 456 417 474T398 505T355 519Q324 519 295 500T243 450T203 386T181 325L113 0H49L140 438Q142 449 143
462T145 484Q145 511 129 518T79 526H65L67 536H223L194 393H196Q224 444 253 477T315 527T384 544Q422 544 443 529T475 490T486 437Q486 412 480 383T468 328L439 196Q432 168 428 139T423 81Q423 51 433 34T469 16Q480 16 490 19T513 29T539 48L545 40Q520 19
495 5T439 -10ZM430 610Q403 610 385 619T350 639T315 660T269 669Q246 669 233 661T212 641T197 614H187Q195 640 209 663T247 702T303 717Q329 717 347 708T381 687T416 666T462 657Q493 657 507 673T531 710H541Q533 685 519 662T484 625T430 610Z" />
<glyph unicode="&#xf2;" horiz-adv-x="535" d="M218 -10Q139 -10 89 40T38 194Q38 237 49 285T82 380T137 464T216 524T318 546Q369 546 409 525T473 459T497 341Q497 298 487 251T455 157T400 73T322 13T218 -10ZM219 0Q263 0 296 22T355 82T396 166T420 260T428
351Q428 416 415 457T377 517T315 536Q273 536 240 514T182 455T141 371T116 276T107 184Q107 83 137 42T219 0ZM381 606Q366 624 351 644T320 684T292 722T270 757L271 766H334Q340 745 349 719T369 666T391 615L390 606H381Z" />
<glyph unicode="&#xf3;" horiz-adv-x="535" d="M218 -10Q139 -10 89 40T38 194Q38 237 49 285T82 380T137 464T216 524T318 546Q369 546 409 525T473 459T497 341Q497 298 487 251T455 157T400 73T322 13T218 -10ZM219 0Q263 0 296 22T355 82T396 166T420 260T428
351Q428 416 415 457T377 517T315 536Q273 536 240 514T182 455T141 371T116 276T107 184Q107 83 137 42T219 0ZM556 605Q573 627 590 652T624 705T654 756H718L716 747Q705 733 688 714T649 673T606 632T565 596H554L556 605Z" />
<glyph unicode="&#xf4;" horiz-adv-x="535" d="M218 -10Q139 -10 89 40T38 194Q38 237 49 285T82 380T137 464T216 524T318 546Q369 546 409 525T473 459T497 341Q497 298 487 251T455 157T400 73T322 13T218 -10ZM219 0Q263 0 296 22T355 82T396 166T420 260T428
351Q428 416 415 457T377 517T315 536Q273 536 240 514T182 455T141 371T116 276T107 184Q107 83 137 42T219 0ZM208 615Q229 635 255 661T305 715T344 766H398Q403 743 415 716T442 662T469 615L468 606H459Q429 633 406 661T364 722Q343 701 319 681T270 643T216
606H207L208 615Z" />
<glyph unicode="&#xf5;" horiz-adv-x="535" d="M218 -10Q139 -10 89 40T38 194Q38 237 49 285T82 380T137 464T216 524T318 546Q369 546 409 525T473 459T497 341Q497 298 487 251T455 157T400 73T322 13T218 -10ZM219 0Q263 0 296 22T355 82T396 166T420 260T428
351Q428 416 415 457T377 517T315 536Q273 536 240 514T182 455T141 371T116 276T107 184Q107 83 137 42T219 0ZM411 610Q384 610 366 619T331 639T296 660T250 669Q227 669 214 661T193 641T178 614H168Q176 640 190 663T228 702T284 717Q310 717 328 708T362
687T397 666T443 657Q474 657 488 673T512 710H522Q514 685 500 662T465 625T411 610Z" />
<glyph unicode="&#xf6;" horiz-adv-x="535" d="M218 -10Q139 -10 89 40T38 194Q38 237 49 285T82 380T137 464T216 524T318 546Q369 546 409 525T473 459T497 341Q497 298 487 251T455 157T400 73T322 13T218 -10ZM219 0Q263 0 296 22T355 82T396 166T420 260T428
351Q428 416 415 457T377 517T315 536Q273 536 240 514T182 455T141 371T116 276T107 184Q107 83 137 42T219 0ZM437 644Q424 644 416 652T407 680Q407 696 411 710T424 733T446 742Q460 742 468 734T477 705Q477 677 466 661T437 644ZM260 644Q247 644 239 652T230
680Q230 696 234 710T247 733T269 742Q283 742 291 734T300 705Q300 677 289 661T260 644Z" />
<glyph unicode="&#xf7;" horiz-adv-x="559" d="M84 347V367H513V347H84ZM299 144Q282 144 270 153T258 186Q258 211 270 220T299 229Q316 229 328 220T340 186Q340 163 328 154T299 144ZM299 486Q282 486 270 495T258 529Q258 553 270 562T299 571Q316 571 328
562T340 529Q340 505 328 496T299 486Z" />
<glyph unicode="&#xf8;" horiz-adv-x="548" d="M2 -50L541 586H553L14 -50H2ZM218 -10Q139 -10 89 40T38 194Q38 237 49 285T82 380T137 464T216 524T318 546Q369 546 409 525T473 459T497 341Q497 298 487 251T455 157T400 73T322 13T218 -10ZM219 0Q263 0 296
22T355 82T396 166T420 260T428 351Q428 416 415 457T377 517T315 536Q273 536 240 514T182 455T141 371T116 276T107 184Q107 83 137 42T219 0Z" />
<glyph unicode="&#xf9;" horiz-adv-x="552" d="M430 -10Q406 -10 390 2T367 35T359 84Q359 91 359 99T361 119T363 143H361Q337 97 309 63T246 10T169 -9Q132 -9 110 6T77 47T66 102Q66 127 73 159T87 220L132 416Q136 435 140 457T144 489Q144 513 128 519T79
526H65L67 536H223L154 234Q149 214 144 190T136 144T132 107Q132 61 147 37T196 12Q229 12 258 31T310 81T349 143T370 199L441 536H507L437 209Q434 194 430 172T424 128T421 88Q421 53 430 34T461 14Q481 14 496 23T529 46L535 39Q517 22 490 6T430 -10ZM395
606Q380 624 365 644T334 684T306 722T284 757L285 766H348Q354 745 363 719T383 666T405 615L404 606H395Z" />
<glyph unicode="&#xfa;" horiz-adv-x="552" d="M430 -10Q406 -10 390 2T367 35T359 84Q359 91 359 99T361 119T363 143H361Q337 97 309 63T246 10T169 -9Q132 -9 110 6T77 47T66 102Q66 127 73 159T87 220L132 416Q136 435 140 457T144 489Q144 513 128 519T79
526H65L67 536H223L154 234Q149 214 144 190T136 144T132 107Q132 61 147 37T196 12Q229 12 258 31T310 81T349 143T370 199L441 536H507L437 209Q434 194 430 172T424 128T421 88Q421 53 430 34T461 14Q481 14 496 23T529 46L535 39Q517 22 490 6T430 -10ZM570
605Q587 627 604 652T638 705T668 756H732L730 747Q719 733 702 714T663 673T620 632T579 596H568L570 605Z" />
<glyph unicode="&#xfb;" horiz-adv-x="552" d="M430 -10Q406 -10 390 2T367 35T359 84Q359 91 359 99T361 119T363 143H361Q337 97 309 63T246 10T169 -9Q132 -9 110 6T77 47T66 102Q66 127 73 159T87 220L132 416Q136 435 140 457T144 489Q144 513 128 519T79
526H65L67 536H223L154 234Q149 214 144 190T136 144T132 107Q132 61 147 37T196 12Q229 12 258 31T310 81T349 143T370 199L441 536H507L437 209Q434 194 430 172T424 128T421 88Q421 53 430 34T461 14Q481 14 496 23T529 46L535 39Q517 22 490 6T430 -10ZM222
615Q243 635 269 661T319 715T358 766H412Q417 743 429 716T456 662T483 615L482 606H473Q443 633 420 661T378 722Q357 701 333 681T284 643T230 606H221L222 615Z" />
<glyph unicode="&#xfc;" horiz-adv-x="552" d="M430 -10Q406 -10 390 2T367 35T359 84Q359 91 359 99T361 119T363 143H361Q337 97 309 63T246 10T169 -9Q132 -9 110 6T77 47T66 102Q66 127 73 159T87 220L132 416Q136 435 140 457T144 489Q144 513 128 519T79
526H65L67 536H223L154 234Q149 214 144 190T136 144T132 107Q132 61 147 37T196 12Q229 12 258 31T310 81T349 143T370 199L441 536H507L437 209Q434 194 430 172T424 128T421 88Q421 53 430 34T461 14Q481 14 496 23T529 46L535 39Q517 22 490 6T430 -10ZM451
644Q438 644 430 652T421 680Q421 696 425 710T438 733T460 742Q474 742 482 734T491 705Q491 677 480 661T451 644ZM274 644Q261 644 253 652T244 680Q244 696 248 710T261 733T283 742Q297 742 305 734T314 705Q314 677 303 661T274 644Z" />
<glyph unicode="&#xfd;" horiz-adv-x="487" d="M-60 -240Q-83 -240 -106 -235T-147 -222L-144 -213Q-132 -218 -113 -222T-63 -226Q-14 -226 27 -215T103 -180T171 -119T235 -27L84 479Q75 508 66 517T29 526H17L19 536H135L229 223Q234 205 241 179T255 125T268
74T277 36H279Q307 81 335 131T388 232T427 333T442 424Q442 449 435 463T410 485T366 493Q366 517 380 530T413 544Q438 544 451 524T465 461Q465 400 444 336T386 201T302 53Q254 -26 215 -82T137 -172T52 -223T-60 -240ZM488 605Q505 627 522 652T556 705T586
756H650L648 747Q637 733 620 714T581 673T538 632T497 596H486L488 605Z" />
<glyph unicode="&#xfe;" horiz-adv-x="526" d="M170 657Q175 677 177 691T179 712Q179 736 164 743T122 750H97L99 760H255L198 491Q195 476 192 461T185 431T177 400H179Q200 439 226 472T284 526T359 546Q399 546 426 526T466 466T480 368Q480 325 468 274T433
173T376 81T294 15T188 -10Q160 -10 139 -3T98 16Q95 4 94 -7T88 -35L63 -149Q61 -157 58 -171T55 -194Q55 -218 73 -224T124 -230H141L138 -240H-19L170 657ZM189 1Q230 1 265 25T327 90T373 180T401 278T411 368Q411 417 405 451T382 504T334 522Q303 522 275
503T224 453T186 389T165 329L103 28Q114 20 134 11T189 1Z" />
<glyph unicode="&#xff;" horiz-adv-x="487" d="M-60 -240Q-83 -240 -106 -235T-147 -222L-144 -213Q-132 -218 -113 -222T-63 -226Q-14 -226 27 -215T103 -180T171 -119T235 -27L84 479Q75 508 66 517T29 526H17L19 536H135L229 223Q234 205 241 179T255 125T268
74T277 36H279Q307 81 335 131T388 232T427 333T442 424Q442 449 435 463T410 485T366 493Q366 517 380 530T413 544Q438 544 451 524T465 461Q465 400 444 336T386 201T302 53Q254 -26 215 -82T137 -172T52 -223T-60 -240ZM368 644Q355 644 347 652T338 680Q338
696 342 710T355 733T377 742Q391 742 399 734T408 705Q408 677 397 661T368 644ZM191 644Q178 644 170 652T161 680Q161 696 165 710T178 733T200 742Q214 742 222 734T231 705Q231 677 220 661T191 644Z" />
<glyph unicode="&#x2013;" horiz-adv-x="500" d="M-5 273L-1 293H511L506 273H-5Z" />
<glyph unicode="&#x2014;" horiz-adv-x="1000" d="M-6 268L-1 288H1011L1005 268H-6Z" />
<glyph unicode="&#x2018;" horiz-adv-x="208" d="M161 472Q137 472 121 490T105 538Q105 577 120 611T165 672T243 711L245 701Q202 689 178 662T153 607Q153 591 161 582T181 566T200 549T209 522Q209 498 196 485T161 472Z" />
<glyph unicode="&#x2019;" horiz-adv-x="208" d="M101 482Q145 495 169 521T194 577Q194 592 185 601T165 617T145 634T136 662Q136 686 150 698T184 711Q208 711 224 694T240 645Q240 605 225 570T179 510T102 472L101 482Z" />
<glyph unicode="&#x201a;" horiz-adv-x="208" d="M-26 -116Q18 -103 42 -77T67 -21Q67 -6 58 3T38 19T18 36T9 64Q9 88 23 100T57 113Q81 113 97 96T113 47Q113 7 98 -28T52 -88T-25 -126L-26 -116Z" />
<glyph unicode="&#x201c;" horiz-adv-x="363" d="M320 472Q296 472 281 490T265 538Q265 577 279 611T325 672T402 711L404 701Q361 689 337 662T312 607Q312 592 320 583T340 566T359 549T368 523Q368 497 355 485T320 472ZM161 472Q137 472 121 490T105 538Q105
577 120 611T166 672T243 711L245 701Q202 689 178 662T153 607Q153 591 161 581T181 564T200 548T209 522Q209 498 196 485T161 472Z" />
<glyph unicode="&#x201d;" horiz-adv-x="365" d="M251 482Q295 495 319 521T344 577Q344 592 335 601T315 617T295 634T286 661Q286 686 300 698T335 711Q357 711 373 695T390 645Q390 606 375 572T330 511T252 472L251 482ZM89 482Q135 495 158 522T182 577Q182
592 174 601T154 617T134 634T125 661Q125 686 139 698T173 711Q196 711 212 695T228 645Q228 606 214 572T169 511T91 472L89 482Z" />
<glyph unicode="&#x201e;" horiz-adv-x="365" d="M121 -130Q165 -117 189 -91T214 -35Q214 -20 205 -11T185 5T165 22T156 49Q156 74 170 86T205 99Q227 99 243 83T260 33Q260 -6 245 -40T200 -101T122 -140L121 -130ZM-41 -130Q5 -117 28 -90T52 -35Q52 -20 44
-11T24 5T4 22T-5 49Q-5 74 9 86T43 99Q66 99 82 83T98 33Q98 -6 84 -40T39 -101T-39 -140L-41 -130Z" />
<glyph unicode="&#x2022;" horiz-adv-x="330" d="M184 220Q135 221 104 250T72 356Q72 407 86 436T126 478T184 492Q215 492 239 480T278 437T294 356Q293 306 279 276T240 233T184 220Z" />
<glyph unicode="&#x2039;" horiz-adv-x="319" d="M192 85L63 262L65 270L270 455H286L127 263L206 85H192Z" />
<glyph unicode="&#x203a;" horiz-adv-x="319" d="M35 85L192 277L114 455H128L256 278L255 270L50 85H35Z" />
</font>
</defs>
</svg>
